<?xml version="1.0" encoding="utf-8"?>
<!-- Generator: Adobe Illustrator 22.1.0, SVG Export Plug-In . SVG Version: 6.00 Build 0)  -->
<svg version="1.1" id="Layer_1" xmlns="http://www.w3.org/2000/svg" xmlns:xlink="http://www.w3.org/1999/xlink" x="0px" y="0px"
	 width="420px" height="595px" viewBox="0 0 420 595" style="enable-background:new 0 0 420 595;" xml:space="preserve">
<style type="text/css">
	.st0{fill:#FFFFFF;stroke:#000000;stroke-width:0.5;}
</style>
<title>zine-cover</title>
<desc>Created with Sketch.</desc>
<g id="zine-cover">
	<g id="Group-21-Copy-6" transform="translate(59.500000, 147.000000)">
		<path id="Fill-1" class="st0" d="M72.4,73.7c-0.3,0-0.5,0.2-0.5,0.5c0,0,0,0,0,0c0,0.3,0.2,0.6,0.6,0.6c0,0,0.1,0,0.1,0
			c0.3,0,0.5-0.2,0.5-0.4c0,0,0-0.1,0-0.1C73.1,74,72.8,73.7,72.4,73.7C72.5,73.7,72.5,73.7,72.4,73.7L72.4,73.7z M33.8,8.1
			c-0.3,0-0.6,0.1-0.7,0.4c-0.1,0.3,0.1,0.5,0.5,0.5c0.3,0.1,0.6-0.1,0.7-0.4C34.4,8.3,34.1,8.2,33.8,8.1z M154.2,217.3
			c0.3-0.1,0.5-0.4,0.4-0.7c0-0.3-0.2-0.6-0.5-0.5c-0.3,0-0.4,0.3-0.4,0.6C153.7,217.1,153.8,217.3,154.2,217.3z M37.3,71.5
			c-0.3,0.1-0.5,0.2-0.4,0.5c0.1,0.3,0.4,0.5,0.7,0.4c0.3,0,0.6-0.2,0.5-0.5C37.9,71.5,37.6,71.5,37.3,71.5z M180.5,61.9
			c0-0.3-0.2-0.5-0.5-0.6c-0.3-0.1-0.6,0-0.6,0.3c0,0.3,0.2,0.5,0.5,0.6c0.2,0.1,0.5,0,0.6-0.3C180.5,62,180.5,61.9,180.5,61.9
			L180.5,61.9z M146.6,19.2c0.3,0,0.6-0.2,0.5-0.5c-0.1-0.3-0.4-0.4-0.7-0.4c-0.3,0-0.6,0.2-0.5,0.5C146,19.2,146.3,19.2,146.6,19.2
			z M226.4,167.4c-0.1-1-0.3-1.5-1.1-1.8C225.1,166.4,225.4,166.9,226.4,167.4z M65.3,278.9c-0.4,0-0.7,0.2-0.7,0.6
			c0,0.2,0.2,0.4,0.4,0.4c0,0,0.1,0,0.1,0c0.4,0,0.7-0.2,0.7-0.6C65.8,279.1,65.6,279,65.3,278.9z M60.6,239.5
			c-0.9,0.5-1.3,1-1.2,1.9C60.3,241.1,60.5,240.5,60.6,239.5z M75.5,49.2c0.3,0,0.6-0.2,0.6-0.5c0,0,0,0,0,0c0.1-0.3,0-0.6-0.4-0.6
			c-0.3-0.1-0.5,0.2-0.6,0.5C75.1,48.8,75.2,49.1,75.5,49.2C75.5,49.2,75.5,49.2,75.5,49.2L75.5,49.2z M233.2,123.5
			c-0.2,0-0.5,0.1-0.5,0.4c0,0,0,0.1,0,0.1c0,0.4,0.2,0.7,0.6,0.7c0.2,0.1,0.5-0.1,0.5-0.3c0-0.1,0-0.1,0-0.2
			C233.8,123.9,233.6,123.6,233.2,123.5z M86.6,18.8c0-0.4-0.2-0.8-0.6-0.9c-0.3-0.1-0.6-0.1-0.7,0.3c-0.1,0.5,0.3,0.7,0.6,0.9
			C86.2,19.1,86.5,19.1,86.6,18.8z M242.1,258.2c0.3,0.7,0.7,1.1,1.4,1.1c0.3,0,0.4-0.3,0.3-0.5
			C243.5,258.2,242.8,257.9,242.1,258.2z M271.7,281.7c-0.3-0.9-0.7-1.3-1.7-1.3C270.3,281.4,270.8,281.7,271.7,281.7z M288.7,47.9
			c0.3,0,0.5-0.2,0.6-0.4c0,0,0-0.1,0-0.1c0-0.3-0.2-0.7-0.6-0.7c0,0,0,0,0,0c-0.3,0-0.5,0.1-0.6,0.4c0,0,0,0.1,0,0.1
			C288.1,47.5,288.4,47.8,288.7,47.9L288.7,47.9z M88.7,205.2c0-0.3,0-0.6-0.3-0.5c-0.5,0.1-0.7,0.5-0.8,0.9
			c-0.1,0.2,0.1,0.5,0.3,0.5C88.4,206.1,88.6,205.6,88.7,205.2z M207.9,176.4c-0.1-0.4-0.1-0.8-0.6-0.9c-0.4,0-0.4,0.3-0.3,0.6
			c0.1,0.4,0,1,0.6,0.9C207.9,177.1,207.9,176.7,207.9,176.4L207.9,176.4z M105.9,174.6c-1,0.4-1.4,0.9-1.3,1.8
			C105.4,176.1,105.7,175.6,105.9,174.6z M233.5,74c0.3,0.8,1.2,1.3,2.1,1.3C235.1,74.4,234.5,74.1,233.5,74L233.5,74z M224.3,91.8
			c0.1-0.8-0.1-1.3-0.7-1.7c-0.2-0.1-0.5-0.1-0.5,0.2C223.1,91,223.4,91.5,224.3,91.8z M98,229.1c-0.3,0-0.5,0.2-0.5,0.5
			c0,0.4,0.1,0.7,0.5,0.6c0.3,0,0.4-0.3,0.5-0.6C98.5,229.4,98.4,229.1,98,229.1C98.1,229.1,98.1,229.1,98,229.1z M153.7,204
			c0.7-1.1,0.7-1.1,0.2-2.2C153.6,202.6,153.4,203.2,153.7,204L153.7,204z M277.9,82.8c-0.4,0.2-0.4,0.5-0.3,0.9
			c0.1,0.3,0.1,0.8,0.6,0.6c0.4-0.1,0.3-0.6,0.2-0.9C278.4,83,278.3,82.8,277.9,82.8L277.9,82.8z M115.5,46.6
			c-0.4,0.1-0.4,0.4-0.3,0.6c0.1,0.4,0.3,0.8,0.7,0.8c0.4,0,0.5-0.3,0.4-0.5C116.3,47.1,116,46.7,115.5,46.6z M225.7,254.7
			c-0.3,0-0.5,0.1-0.4,0.4c0,0.5,0.4,0.9,1,1c0.3,0,0.4-0.2,0.3-0.4C226.4,255.2,226.1,254.9,225.7,254.7z M279.5,115.1
			c-0.3,0.1-0.5,0.4-0.4,0.7c0,0.3,0.3,0.5,0.5,0.5c0.4,0,0.6-0.3,0.6-0.6C280.2,115.4,279.9,115.1,279.5,115.1
			C279.6,115.1,279.5,115.1,279.5,115.1z M241.2,21.7c0.5,1,1.2,1.4,2.3,1.3C242.9,22.1,242.3,21.8,241.2,21.7z M119.3,56.1
			c-0.3,0-0.5,0.2-0.5,0.4c0,0,0,0.1,0,0.1c0,0.3,0.3,0.6,0.6,0.7c0.2,0.1,0.5-0.1,0.5-0.3c0,0,0-0.1,0-0.1
			C120,56.5,119.7,56.2,119.3,56.1z M181.7,65.2c0.5,1,0.9,1.5,2.1,1.6C183.3,65.9,182.9,65.4,181.7,65.2z M256.2,168.7
			c-0.4,0.1-0.4,0.4-0.3,0.6c0.2,0.4,0.4,0.9,0.9,0.9c0.4,0,0.4-0.3,0.3-0.6C257,169.2,256.6,168.9,256.2,168.7L256.2,168.7z
			 M294.5,291.9c-0.4,0-0.7,0.2-0.7,0.6c0,0.3,0.2,0.5,0.5,0.6c0.3,0.1,0.6-0.1,0.7-0.4c0,0,0-0.1,0-0.1
			C295.1,292.2,294.9,292,294.5,291.9L294.5,291.9z M271.5,152.5c-0.1-0.4-0.1-0.8-0.6-0.9c-0.4-0.1-0.4,0.3-0.4,0.6
			c0.1,0.4,0,1,0.6,1C271.5,153.1,271.5,152.8,271.5,152.5z M28.6,233.4c0.5-0.7,0.9-1.2,0.2-2.2C28.4,231.9,28.1,232.4,28.6,233.4z
			 M126.2,48.9c-0.1-0.4-0.4-0.8-0.9-0.9c-0.3-0.1-0.5,0-0.5,0.3c0,0.5,0.3,0.9,0.7,1C125.9,49.4,126.1,49.2,126.2,48.9z
			 M10.6,119.6c-0.4,0-0.5,0.3-0.5,0.6s0,0.7,0.4,0.8c0.5,0.1,0.6-0.3,0.6-0.6C11.1,120,10.9,119.6,10.6,119.6z M73.1,282.5
			c0.4-0.1,0.6-0.5,0.5-0.9c0-0.2-0.2-0.4-0.4-0.4c-0.1,0-0.1,0-0.2,0c-0.3,0.1-0.6,0.4-0.5,0.8C72.5,282.4,72.7,282.5,73.1,282.5
			L73.1,282.5z M69.8,56.2c-0.2,0-0.5,0.1-0.5,0.4c0,0.1,0,0.1,0,0.2c0,0.5,0.2,0.9,0.7,1c0.3,0,0.4-0.2,0.4-0.4
			C70.5,56.8,70.4,56.4,69.8,56.2z M283.2,42.4c0.4-0.2,0.4-0.5,0.4-0.8c-0.1-0.3-0.2-0.7-0.7-0.6c-0.3,0.1-0.4,0.4-0.3,0.7
			C282.6,42,282.7,42.3,283.2,42.4z M178.5,288c-0.1-0.5-0.4-0.9-0.9-1.1c-0.3-0.1-0.6,0.1-0.5,0.4c0.1,0.5,0.5,0.9,1,1.1
			C178.3,288.5,178.5,288.3,178.5,288z M40.3,11.2c0.3,0.1,0.6,0,0.6-0.3c0-0.5-0.4-1-0.9-1.1c-0.2-0.1-0.4,0-0.5,0.1
			c0,0.1-0.1,0.2-0.1,0.2C39.5,10.7,39.8,11.1,40.3,11.2z M154.4,225.7c0.4-0.8,0.4-1.3,0.1-1.9c-0.1-0.1-0.3-0.1-0.4,0
			C153.6,224.5,153.7,225.1,154.4,225.7z M240.2,256.5c-0.5-1.2-1-1.7-2-2C238.4,255.6,239,256,240.2,256.5z M128.5,286.1
			c-0.1,1,0.3,1.6,1.1,2c0.1,0,0.4-0.1,0.4-0.1c0.2-0.8-0.6-1.1-1-1.6C129,286.3,128.8,286.3,128.5,286.1z M273.1,87.1
			c-0.1-0.4-0.2-0.8-0.7-0.8c-0.4,0-0.5,0.4-0.5,0.8c0,0.4,0.2,0.8,0.7,0.8C273,87.8,273.1,87.4,273.1,87.1L273.1,87.1z M63.3,188.9
			c0-0.3-0.1-0.7-0.4-0.6c-0.6,0.1-0.7,0.7-0.7,1.2c0,0.3,0.1,0.6,0.4,0.5C63.1,189.9,63.2,189.4,63.3,188.9z M230.7,60.7
			c0.4,1.2,0.9,1.7,2.1,1.8C232.5,61.5,231.7,60.8,230.7,60.7L230.7,60.7z M171.1,191.9c0.3,0,0.5-0.2,0.5-0.4c0,0,0-0.1,0-0.1
			c0-0.5-0.1-0.9-0.7-1c-0.3-0.1-0.5,0.2-0.5,0.5C170.4,191.3,170.7,191.7,171.1,191.9z M217.1,292c-0.2-0.4-0.6-0.6-1-0.5
			c-0.4,0-0.8,0.1-0.7,0.6c0.1,0.6,0.6,0.6,1.1,0.5C216.8,292.5,217.1,292.3,217.1,292C217.1,292,217.1,292,217.1,292L217.1,292z
			 M235.9,292.4c-0.8-0.4-1.4-0.5-2-0.1c-0.1,0.1-0.1,0.3,0,0.4C234.5,293.1,235.1,293.1,235.9,292.4z M94.4,19.4
			c-0.3,0-0.6,0.2-0.5,0.5c0.1,0.5,0.5,0.8,0.9,0.8c0.2,0,0.5-0.2,0.5-0.4c0,0,0-0.1,0-0.1C95.2,19.7,94.8,19.4,94.4,19.4L94.4,19.4
			z M75,276.5c0-0.3-0.1-0.6-0.4-0.7c-0.6,0-0.7,0.4-0.8,0.9c-0.1,0.3,0,0.6,0.4,0.6C74.8,277.4,74.9,276.9,75,276.5L75,276.5z
			 M160.9,266c-0.3,0-0.5,0.2-0.5,0.5c0,0,0,0.1,0,0.1c0,0.5,0.2,0.9,0.7,1c0.4,0.1,0.5-0.3,0.4-0.6
			C161.6,266.5,161.5,266.1,160.9,266z M276.2,16.3c0-0.4-0.2-0.6-0.6-0.6c-0.4,0-0.8,0.1-0.9,0.5c-0.1,0.5,0.3,0.6,0.6,0.6
			C275.6,17,276,16.7,276.2,16.3z M29.8,84.7c0.3-0.3,0.4-0.8,0.3-1.2c-0.1-0.4-0.2-0.9-0.7-0.7c-0.5,0.2-0.3,0.7-0.2,1
			C29.2,84.2,29.2,84.6,29.8,84.7z M33.4,293.2c0.3,0,0.5-0.1,0.6-0.4c0,0,0-0.1,0-0.1c0.1-0.6-0.2-1.1-0.7-1.4
			c-0.3-0.2-0.5,0.2-0.5,0.5C32.9,292.3,32.8,292.9,33.4,293.2z M49.5,105.1c0.4-0.1,0.6-0.5,0.5-0.9c0-0.4-0.2-0.7-0.7-0.5
			c-0.4,0.1-0.5,0.5-0.5,0.8C48.9,104.8,49,105.1,49.5,105.1z M228.7,292.1c1.3,1,1.3,1,2.5,0.4
			C230.5,291.9,229.8,291.8,228.7,292.1z M115,262.9c0.1,0.4,0,1,0.6,1c0.6,0,0.5-0.5,0.4-0.9c-0.1-0.4-0.1-1-0.7-0.9
			C114.9,262.1,115,262.6,115,262.9z M227.5,228.7c-0.3,0-0.6,0.3-0.5,0.6c0,0,0,0,0,0.1c0,0.5,0.4,0.8,0.9,0.9
			c0.2,0.1,0.5,0,0.5-0.2c0-0.1,0-0.1,0-0.2C228.3,229.3,228,228.9,227.5,228.7z M203.2,173.7c-0.2,0.2-0.2,0.5,0,0.8
			c0.2,0.5,0.2,1.1,0.8,1.4c0.1,0,0.3-0.2,0.3-0.3c0.1-0.6-0.1-1.1-0.5-1.5C203.7,173.8,203.6,173.5,203.2,173.7z M295.8,179.3
			c0.4-1.3,0.4-2.1-0.3-3.1C295.1,177.6,295.1,177.6,295.8,179.3z M232.8,267.3c-0.3,0-0.6,0-0.6,0.3c0.1,0.8,0.9,0.9,1.5,1.2
			c0.2,0.1,0.5,0,0.5-0.3C234,267.8,233.3,267.5,232.8,267.3z M15.2,248.5c-0.6,1.4-0.5,1.5,0.6,2.3
			C15.9,249.9,15.9,249.2,15.2,248.5L15.2,248.5z M85.8,245.4c-0.3,0-0.7,0.8-0.6,1.2c0,0.3,0.2,0.6,0.5,0.5
			c0.6-0.1,0.8-0.6,0.7-1.1C86.3,245.7,86.2,245.4,85.8,245.4z M278.6,42.7c-0.4,0.2-0.4,0.6-0.4,1s0,1,0.6,1c0.6,0,0.5-0.5,0.4-0.9
			C279.2,43.5,279.2,42.9,278.6,42.7L278.6,42.7z M184.4,56.5c-0.3-1.1-0.6-1.7-1.4-2c-0.2-0.1-0.4,0-0.4,0.2c0,0,0,0.1,0,0.1
			C182.6,55.7,183.3,56,184.4,56.5L184.4,56.5z M33.5,90.5c-0.2,0.9-0.6,1.9,0.2,3.1C34.1,92.4,34.1,91.4,33.5,90.5z M76,200
			c0.8-0.5,1.4-1.3,1.5-2.2c0-0.2-0.1-0.3-0.3-0.3c-0.1,0-0.1,0-0.2,0c-0.8,0.5-1.1,1.3-1.2,2.1C75.9,199.7,75.9,199.7,76,200z
			 M274.6,160.1c-0.3,0.2-1,0.2-1,0.8c0,0.5,0.5,0.6,0.9,0.5c0.5,0,0.9-0.3,0.9-0.8C275.4,160.3,275.1,160.1,274.6,160.1
			L274.6,160.1z M218.3,188.3c-0.2-1.1-0.3-2.1-1.4-3C217,186.7,217.3,187.6,218.3,188.3z M73.7,54.1c0.3,0,0.5-0.3,0.5-0.6
			c0,0,0-0.1,0-0.1c-0.1-0.4-0.3-0.9-0.8-1c-0.4-0.1-0.6,0.3-0.6,0.6C72.7,53.6,73.2,54,73.7,54.1L73.7,54.1z M44.4,95.9
			c-0.3,1,0.1,2,0.9,2.5C45.6,97.2,45.3,96.4,44.4,95.9z M294.2,280c-0.1-0.4,0-1-0.7-1c-0.5,0-0.5,0.5-0.5,0.9c0,0.4,0,0.9,0.5,1
			C294.1,281,294.1,280.4,294.2,280z M161.3,271c-0.3,0.2-0.5,0.6-0.3,0.9c0.1,0.6,0.3,1.2,0.9,1.5c0.1,0,0.3-0.1,0.4-0.2
			c0.2-0.6-0.2-1.1-0.4-1.6C161.7,271.5,161.5,271.2,161.3,271z M271.9,276.2c0.3-0.1,0.7-0.1,0.7-0.5c0-0.6-0.4-0.7-0.9-0.7
			c-0.4,0-0.7,0.2-0.7,0.6C271,276.1,271.4,276.2,271.9,276.2L271.9,276.2z M216.7,241.5c-0.1,1.1,0,2.1,1.1,2.9
			C218.1,243.1,217.3,242.3,216.7,241.5L216.7,241.5z M294.8,145.8c-0.1-0.5,0-1.2-0.6-1.2c-0.6-0.1-0.5,0.6-0.5,1
			c0,0.5-0.1,1.2,0.5,1.2C294.9,146.9,294.8,146.2,294.8,145.8z M257.8,157.4c0.5-0.1,0.7-0.5,0.7-1c0-0.5-0.1-1-0.7-0.9
			c-0.5,0.1-0.5,0.7-0.6,1.1C257.1,157,257.2,157.3,257.8,157.4z M154.9,82.4c-0.6,0.2-0.5,0.7-0.5,1.1c0,0.4-0.1,1,0.5,1.1
			c0.6,0.1,0.6-0.5,0.6-1C155.5,83.2,155.5,82.6,154.9,82.4z M111.6,129.8c0.7-0.1,0.7-0.7,0.8-1.2c0.1-0.4,0.1-0.9-0.4-0.9
			c-0.7,0-0.7,0.6-0.8,1.1C111.1,129.2,111.1,129.6,111.6,129.8z M13.2,297.8c0.3,0,0.7,0,0.7-0.3c-0.1-0.8-0.9-1-1.4-1.2
			c-0.4-0.2-0.7,0.1-0.6,0.5C12,297.5,12.6,297.6,13.2,297.8z M72.4,10.6c-0.4,0-0.8,0-0.8,0.5c0,0.7,0.6,0.7,1.1,0.8
			c0.3,0,0.8,0,0.8-0.4C73.4,10.7,72.8,10.7,72.4,10.6z M74.7,286.4c-0.3,0.1-0.8,0.1-0.8,0.6c0.1,0.6,0.6,0.6,1,0.7
			c0.3,0,0.8,0,0.8-0.4C75.8,286.7,75.3,286.5,74.7,286.4L74.7,286.4z M33.6,287.4c0.7-0.3,0.8-1,1-1.6c0.1-0.3,0-0.6-0.4-0.5
			c-0.7,0.2-0.9,0.8-1.1,1.4C33.1,287,33.1,287.3,33.6,287.4L33.6,287.4z M26.7,250.5c0.6-0.2,1-0.7,1.1-1.3c0.1-0.2,0-0.5-0.3-0.5
			c-0.1,0-0.1,0-0.2,0c-0.7,0-0.9,0.6-1,1.1C26.2,250,26.2,250.4,26.7,250.5z M175.9,290c-0.5,0-0.7,0.2-0.6,0.6
			c0.1,0.6,0.6,1,1.1,1.1c0.3,0.1,0.6-0.1,0.6-0.4C177,290.5,176.5,290.2,175.9,290z M231.1,87.7l-0.5,0.3c0.2,1.3,1.2,1.9,2.1,2.6
			l0.4-0.3L231.1,87.7z M38,52.8c0.4,0.9,0.3,1.9,1.2,2.4c0.2,0.1,0.4-0.1,0.4-0.4c0.1-0.9-0.4-1.7-1.2-2.1
			C38.5,52.7,38.4,52.7,38,52.8z M274.3,124.1c0.1,0.4,0,1,0.7,1c0.5,0,0.7-0.4,0.6-0.8c0-0.5-0.2-1.1-0.8-1.1
			C274.2,123.2,274.3,123.7,274.3,124.1L274.3,124.1z M291.4,96.7c-0.5,0.3-0.4,0.8-0.4,1.2c0,0.4,0,1,0.6,1c0.6,0,0.6-0.6,0.5-1
			C292.1,97.5,292,96.9,291.4,96.7L291.4,96.7z M258.2,174.3c0,1.6,0.3,2.7,1.5,3.8C259.6,176.7,259.1,175.4,258.2,174.3z
			 M211.7,284.8c-0.4,0.1-0.6,0.3-0.6,0.7c0,0.6,0.5,1.1,1.1,1.1c0.4,0.1,0.6-0.2,0.6-0.6C212.7,285.4,212.3,284.9,211.7,284.8z
			 M101.1,16.4c0-0.6-0.4-1.1-0.9-1.2c-0.4-0.1-0.6,0.2-0.6,0.6c0,0.6,0.2,1.1,0.9,1.3C100.8,17.1,101,16.8,101.1,16.4z M283,18.6
			c-0.2-0.4-0.4-0.6-0.6-0.9c-0.3-0.4-0.3-1-1-1c-0.2,0-0.4,0.2-0.4,0.4c0,0,0,0,0,0c0,0.6,0.4,0.9,0.8,1.3
			C282.1,18.8,282.6,18.9,283,18.6z M128.4,18.8c-0.8-0.9-1.5-1.4-2.6-1.4c-0.1,0-0.3,0.3-0.3,0.3c0.4,0.9,1.4,1,2.2,1.3
			C127.9,19.1,128,19,128.4,18.8z M127.4,75.4c0.1-1.1,0.3-2.3-1-3.5C126.4,73.4,126.6,74.4,127.4,75.4z M277.4,65.3
			c-0.4,0-0.7,0.3-0.6,0.6c0.1,0.7,0.6,1,1.2,1.2c0.4,0.1,0.6-0.2,0.6-0.6C278.5,66,278,65.5,277.4,65.3z M187.6,224.4
			c-0.3,0.3-0.3,0.7-0.1,1c0.3,0.6,0.4,1.4,1.2,1.7c0.2,0,0.3-0.1,0.4-0.2c0.1-0.7-0.4-1.2-0.7-1.8
			C188.3,224.7,187.9,224.5,187.6,224.4L187.6,224.4z M92.9,234c0.8-0.3,0.9-1,1.1-1.7c0.1-0.3,0.1-0.8-0.4-0.7
			c-0.8,0.2-0.9,1.1-1.1,1.8c-0.1,0.2,0,0.5,0.2,0.6C92.8,233.9,92.8,234,92.9,234z M166,47.8c0.4,0.1,0.6-0.2,0.5-0.5
			c-0.1-0.7-0.2-1.4-1-1.6c-0.3-0.1-0.5,0.2-0.5,0.5C165,46.8,165.3,47.5,166,47.8L166,47.8z M290.3,257.5c0.1,0.5,0,1.3,0.7,1.3
			c0.5,0,0.5-0.5,0.5-0.9c-0.1-0.6,0-1.4-0.7-1.5C290.2,256.4,290.3,257.1,290.3,257.5z M109.3,119.4c-0.1-0.5,0.1-1.2-0.4-1.3
			c-0.7-0.1-0.5,0.7-0.6,1.1c0,0.5-0.1,1.2,0.4,1.3C109.4,120.6,109.2,119.8,109.3,119.4z M203.2,291.7c-0.4,0-0.7,0.1-0.7,0.4
			c0.1,0.8,0.8,1,1.5,1.1c0.3,0.1,0.8,0,0.7-0.4C204.5,292,203.7,291.9,203.2,291.7z M286,228.2c-0.1,0.2-0.2,0.4-0.2,0.7
			c0,0.7-0.1,1.4,0.6,1.8c0.2,0.1,0.3,0,0.5,0c0.5-0.6,0-1.2-0.1-1.8C286.7,228.5,286.4,228.2,286,228.2L286,228.2z M200,291.5
			c-0.3-0.7-0.9-1.2-1.6-1.3c-0.2-0.1-0.4,0-0.5,0.2c0,0.1,0,0.2,0,0.3c0.1,0.7,0.7,1.2,1.4,1.4c0.3,0.1,0.6,0,0.7-0.3
			C200,291.7,200,291.6,200,291.5L200,291.5z M297.9,218.9c-0.1-1.2-0.1-2-0.2-2.7c0-0.3-0.2-0.7-0.7-0.6c-0.4,0.1-0.4,0.5-0.4,0.8
			C296.8,217.3,297.2,218.2,297.9,218.9z M169.5,290.2c-0.2-0.6-0.7-1-1.3-1.1c-0.4-0.1-0.5,0.2-0.5,0.5c0.1,0.7,0.4,1.2,1.1,1.2
			C169.2,290.8,169.5,290.6,169.5,290.2z M38.5,14.2c-0.3-0.5-0.6-1.1-1.4-1.2c-0.4,0-0.5,0.3-0.4,0.6c0.2,0.6,0.4,1.3,1.2,1.4
			C38.4,15,38.6,14.7,38.5,14.2z M103.1,153.2c0.8-0.8,1.5-1.4,1.3-2.4c-0.1-0.2-0.3-0.3-0.5-0.2c0,0-0.1,0-0.1,0
			C102.8,151.1,102.7,151.9,103.1,153.2z M154.9,212.1c-0.9,0.4-1,1.2-1.2,1.9c-0.1,0.3,0,0.7,0.4,0.8c0,0,0,0,0.1,0
			c0.3,0.1,0.6,0,0.7-0.3c0-0.1,0-0.1,0-0.2C154.9,213.6,155.3,212.9,154.9,212.1z M284.5,194.8c-0.1-0.6-0.2-1.3-0.9-1.4
			c-0.5-0.1-0.7,0.4-0.6,0.8c0.1,0.6,0.2,1.3,0.9,1.4C284.4,195.7,284.4,195.2,284.5,194.8z M53.1,101.6c-0.1-0.5-0.4-0.9-1-0.9
			c-0.4,0-0.7,0.3-0.7,0.6c0,0.1,0,0.1,0,0.2c0.1,0.5,0.4,1,1,1C52.9,102.5,53.1,102.1,53.1,101.6z M280.2,90.8
			c-0.1-0.6-0.1-1.4-0.9-1.6c-0.5-0.1-0.5,0.5-0.4,0.9c0.1,0.7-0.1,1.6,0.9,1.7C280.2,91.8,280.2,91.2,280.2,90.8L280.2,90.8z
			 M44.9,59.1c-0.1-0.7-0.6-0.8-1.1-0.8C43.3,58.2,43,58.5,43,59c0,0.5,0.1,1.1,0.8,1.1C44.4,60,44.7,59.6,44.9,59.1L44.9,59.1z
			 M119.3,203.7c-0.4,1.1-1,2-0.7,3.1c0,0.1,0.4,0.2,0.4,0.1c0.7-0.8,1-1.9,0.7-3C119.7,203.9,119.7,203.9,119.3,203.7z M259,159.3
			c-0.1,1.6,0.3,2.6,1,4C260.5,161.6,260.1,160.5,259,159.3z M105.5,182.4c0-0.4-0.1-0.8-0.5-0.7c-0.8,0.3-1.1,1-1.3,1.8
			c-0.1,0.3,0.1,0.6,0.4,0.6C105,183.8,105.3,183.1,105.5,182.4z M91.5,48.2c-0.3-0.7-0.8-1.3-1.5-1.5c-0.3-0.1-0.6,0.1-0.5,0.4
			c0.2,0.8,0.5,1.5,1.4,1.8C91.3,49,91.5,48.8,91.5,48.2z M121.2,176.9c0-0.4,0.1-1-0.3-0.9c-1,0.2-0.9,1.3-1.1,2
			c-0.1,0.3-0.1,0.9,0.3,0.8C121.2,178.6,120.9,177.5,121.2,176.9z M205.1,179.5c-0.1,0.7,0.4,1.1,0.6,1.6s0.2,1.4,0.9,1.1
			c0.7-0.3,0.3-1.2,0-1.8C206.3,179.8,205.7,179.4,205.1,179.5z M272.3,287.2c-0.4,0-1.1-0.1-1,0.3c0.1,0.9,1,0.9,1.7,1.1
			c0.3,0.1,1,0.3,1-0.2C273.8,287.5,272.9,287.5,272.3,287.2z M84.8,13.1c0.9,0.8,1.6,1.5,2.6,1.4c0.5-0.1,0.3-0.7,0.1-1
			C86.9,12.4,85.9,13,84.8,13.1z M53.9,227.8c0-0.4,0-1.1-0.4-1c-0.9,0.2-0.7,1.1-0.9,1.8c-0.1,0.3-0.1,0.9,0.3,0.8
			C53.7,229.3,53.7,228.4,53.9,227.8L53.9,227.8z M117.8,163.4c-0.7,0.9-1,1.8-0.6,2.8c0.1,0.1,0.3,0.1,0.4,0.1
			c0.8-0.8,0.8-1.7,0.5-2.7C118.1,163.6,118,163.6,117.8,163.4L117.8,163.4z M124.7,15.3c-0.4-0.7-1.1-1.2-2-1.4
			c-0.3,0-0.6,0.2-0.5,0.5c0.3,0.9,1.1,1.3,2,1.4C124.5,15.8,124.7,15.7,124.7,15.3z M66.5,164.9c0-0.2,0.2-0.7-0.2-0.8
			c-0.5-0.2-0.7,0.3-0.7,0.7c-0.1,0.8-0.7,1.5-0.2,2.3c0.1,0.1,0.3,0.1,0.5,0.1c0.8-0.5,0.3-1.3,0.6-2
			C66.5,165.1,66.5,165,66.5,164.9z M113.5,134.9c-0.7,1-1,2.2-0.9,3.3c0,0.1,0.4,0.2,0.4,0.1c0.7-0.9,1-2.1,0.8-3.2
			C113.7,135.1,113.7,135.1,113.5,134.9L113.5,134.9z M71.8,160.1c0-0.4,0-1.1-0.3-1c-1,0.2-0.8,1.3-1,2.1c-0.1,0.3-0.1,0.9,0.3,0.8
			C71.6,161.8,71.5,160.8,71.8,160.1z M19.5,41.2c-0.5-0.7,0-1.9-1.2-2.3c-0.3-0.1-0.4,0.5-0.3,0.8c0.3,0.8,0.1,1.9,1.2,2.2
			C19.5,42.1,19.6,41.6,19.5,41.2z M90.9,238.4c0.8-0.4,1.1-1,1.5-1.5c0.3-0.4,0.4-0.9-0.1-1.2c-0.7-0.4-0.9,0.3-1,0.7
			C91,237,90.5,237.6,90.9,238.4z M283.8,289.4c-0.5,0-0.8,0.1-0.7,0.5c0.2,0.9,1.1,1,1.9,1.1c0.3,0,0.8-0.1,0.7-0.5
			C285.3,289.7,284.4,289.7,283.8,289.4z M153.5,69.1c-0.1-0.5-0.1-1.2-0.8-1.3c-0.7-0.1-0.7,0.4-0.7,0.9c0,0.6,0,1.2,0.7,1.3
			C153.4,70.1,153.5,69.6,153.5,69.1z M233.5,102.2c-0.6-0.9-1.2-1.8-1.9-2.7c-0.2-0.3-0.5-0.3-0.7-0.2c0,0,0,0,0,0
			c-0.3,0.2-0.2,0.5,0,0.8C231.5,101,232.2,101.9,233.5,102.2z M76.3,271.7c-0.7,0.9-1.9,1.3-1.9,2.5c0,0.2,0.2,0.4,0.4,0.3
			c0,0,0.1,0,0.1,0c1-0.4,1.7-1.4,1.6-2.5C76.6,272,76.5,272,76.3,271.7L76.3,271.7z M161.9,218.6c0.3-1.1,0.1-2.2-0.4-3.1
			c-0.1-0.2-0.5-0.1-0.5,0.1c-0.4,1.1-0.3,2.2,0.7,3C161.6,218.7,161.7,218.6,161.9,218.6L161.9,218.6z M125,142.5
			c0-0.5,0.1-1.1-0.6-1.2c-0.7,0-0.8,0.7-0.9,1.2c-0.1,0.5-0.1,1.1,0.6,1.2C124.8,143.7,124.8,143,125,142.5L125,142.5z M90.6,23.5
			c0.5-0.1,0.9-0.3,0.7-0.7c-0.2-0.7-0.8-1.2-1.5-1.4c-0.5-0.1-0.6,0.4-0.6,0.8C89.2,22.9,89.9,23.5,90.6,23.5z M276.1,129.8
			c-0.1-0.5,0.1-1.3-0.7-1.3c-0.6,0-0.8,0.8-0.7,1.3s0,1.3,0.7,1.3S276,130.3,276.1,129.8L276.1,129.8z M269.5,148.3
			c0,0.6,0.1,1.2,0.8,1.3c0.6,0.1,0.8-0.4,0.8-0.9c-0.1-0.7,0-1.5-0.9-1.6C269.5,147.1,269.6,147.8,269.5,148.3L269.5,148.3z
			 M121.7,150.5c1-1.1,1.3-2.1,1.7-3c0.2-0.3,0.1-0.6-0.2-0.8c0,0-0.1,0-0.1-0.1c-0.3-0.1-0.6,0.1-0.7,0.4
			C122.1,148,121.6,149,121.7,150.5z M13.2,158.5c-0.1-0.5,0-1.4-0.8-1.5c-0.7,0-0.7,0.8-0.7,1.3c0,0.5-0.1,1.4,0.7,1.5
			C13.1,159.8,13.1,159,13.2,158.5z M14.9,225c0.2,0.6-0.4,1.7,0.5,1.7s0.5-1.1,0.5-1.7c0-0.6,0.4-1.7-0.5-1.7
			C14.5,223.4,15.1,224.4,14.9,225z M136.5,3.4c-0.4,0.1-1.1,0.1-1.1,0.7c0,0.8,0.8,0.8,1.4,0.8c0.5,0,1.1-0.1,1.1-0.8
			C137.8,3.5,137.1,3.5,136.5,3.4z M150.3,12.7c0.5,0,1,0,0.9-0.7c0-0.6-0.6-1.1-1.2-1.1c0,0,0,0,0,0c-0.5,0-1.1,0.2-1.1,0.8
			C149,12.6,149.8,12.6,150.3,12.7z M67,282.6c0.7-0.2,1.4-0.5,1.5-1.4c0-0.4-0.2-0.7-0.6-0.6c-0.9,0.2-1.5,0.8-1.8,1.6
			C66,282.6,66.5,282.6,67,282.6L67,282.6z M30.6,261.7c-1.2,1.1-1.4,2.2-1.8,3.3c-0.1,0.2,0,0.5,0.2,0.7c0,0,0,0,0.1,0
			c0.3,0.1,0.5-0.2,0.6-0.4C30.1,264.2,30.7,263.3,30.6,261.7z M282.4,36.1c-0.5,0.1-0.6,0.5-0.5,0.9c0.1,0.7,0.1,1.6,1,1.7
			c0.6,0.1,0.8-0.4,0.7-0.9C283.6,37.1,283.3,36.4,282.4,36.1z M227.8,19.5c-0.5,0-1.3,0-1.1,0.5c0.4,1.2,1.9,0.6,2.7,1.3
			c0.1,0.1,0.4,0.1,0.5,0c0.1-0.1,0.1-0.2,0.1-0.3C229.8,19.8,228.7,19.8,227.8,19.5L227.8,19.5z M14.7,230c0.2,0.4-0.3,1.2,0.5,1.3
			c0.8,0,0.8-0.8,0.8-1.4c0-0.6,0.2-1.5-0.7-1.4C14.6,228.4,14.8,229.4,14.7,230z M52.6,11.5c-0.2-0.8-0.9-1.4-1.7-1.6
			c-0.4-0.1-0.7,0.2-0.6,0.6c0.2,0.8,0.7,1.6,1.6,1.8C52.3,12.4,52.5,12.1,52.6,11.5z M174.4,245.7c0-0.1,0-0.2-0.1-0.3
			c-0.4-0.9-0.3-2.1-1.4-2.7c-0.2,0-0.3,0.1-0.4,0.2c-0.2,1.1,0.5,2,0.9,2.9c0.1,0.3,0.3,0.5,0.7,0.4
			C174.3,246,174.4,245.7,174.4,245.7z M279.6,36.1c0.5,0,0.8-0.2,0.8-0.7c0-0.8-0.4-1.5-1.2-1.7c-0.5-0.1-0.7,0.3-0.6,0.8
			C278.6,35.2,278.8,35.8,279.6,36.1z M152,290c-0.6-1.6-0.9-3.4-2.3-4.5C149.9,287.2,150.7,288.7,152,290L152,290z M128.6,281.1
			c0-0.4-0.1-0.8-0.2-1.1c-0.2-0.6,0.3-1.8-0.5-1.7c-1,0.1-0.6,1.2-0.6,2c0,0.4,0.1,0.8,0.3,1.1c0.1,0.3,0.3,0.7,0.7,0.6
			C128.8,281.9,128.6,281.4,128.6,281.1z M287.8,226.2c-0.1-0.6-0.1-1.3-1-1.3c-0.6,0-1.1,0.5-1.1,1.1c0,0,0,0,0,0
			c0,0.7,0.6,1.3,1.3,1.3C287.7,227.4,287.7,226.7,287.8,226.2L287.8,226.2z M65.5,221.5c0-0.4-0.1-0.9-0.5-0.8
			c-1,0.4-1.4,1.3-1.6,2.2c-0.1,0.4,0.1,0.9,0.6,0.8C65.1,223.4,65.2,222.3,65.5,221.5z M246.8,64.1c-0.4,0-0.7,0.3-0.5,0.7
			c0.3,0.9,1.1,1.6,2,1.8c0.4,0.1,0.6-0.2,0.6-0.6C248.9,65.5,247.3,64,246.8,64.1L246.8,64.1z M241.9,25.8c-0.4,0-0.8,0.1-0.7,0.5
			c0.4,1.2,1.5,1.4,2.5,1.6c0.2,0.1,0.5,0,0.6-0.2c0,0,0-0.1,0-0.1C244.4,27,242.6,25.8,241.9,25.8L241.9,25.8z M30.2,210.7
			c0.3,0.7,0,2.2,0.9,2.1c1-0.1,0.3-1.4,0.3-2.2c0-0.3,0-0.7-0.1-1c0-0.3-0.1-0.6-0.5-0.6c-0.4,0-0.5,0.4-0.6,0.7
			C30.2,210.1,30.2,210.4,30.2,210.7z M292.6,131.3c-0.5,1.5-1,2.5-0.9,3.7c0,0.3,0.1,0.7,0.5,0.8c0.5,0.1,0.7-0.3,0.8-0.7
			C293,134,293.2,132.8,292.6,131.3L292.6,131.3z M250.6,260.9c-1.3-1.4-2.9-2.6-4.7-3.3C247.1,259.2,248.7,260.3,250.6,260.9
			L250.6,260.9z M236.2,22.2c0.5,0,1,0.1,1.1-0.5c0.1-0.6-0.5-0.7-0.9-0.8c-0.8-0.2-1.6-0.7-2.4-0.1c-0.1,0.2-0.2,0.4-0.1,0.6
			C234.5,22.2,235.5,22.1,236.2,22.2z M147.5,144c-0.4,1.5-0.8,2.6-0.6,3.7c0.1,0.3,0.2,0.7,0.6,0.7s0.6-0.3,0.6-0.7
			C148.2,146.6,148.4,145.5,147.5,144L147.5,144z M56.6,9.8c1.5,0.6,2.5,1.1,3.6,1.5c0.3,0.1,0.6,0.2,0.8-0.1c0.2-0.3,0-0.5-0.2-0.7
			C59.7,9.6,58.5,8.9,56.6,9.8z M290.2,89.3c0.3,0.8-0.2,2.1,1.1,2.4c0.5,0.1,0.6-0.6,0.5-1c-0.2-0.9,0.2-2.2-1.1-2.5
			C290.2,88,290.2,88.8,290.2,89.3z M161.6,38c1.1,1.5,2.8,2.4,4.4,3.3C165,39.6,163.6,38.4,161.6,38z M296.9,209.5
			c-0.3,1.3-0.6,2.5-0.4,3.8c0.1,0.4,0.1,0.9,0.6,0.9c0.5,0,0.6-0.5,0.6-0.9C297.6,212,297.6,210.7,296.9,209.5L296.9,209.5z
			 M59.1,180.2c0.3,0.4-0.2,1.5,0.7,1.3c0.8-0.1,0.9-1.2,1-2c0-0.5,0-1.4-0.7-1.2C59.1,178.4,59.2,179.3,59.1,180.2z M41.9,217.7
			c-1.1,1.6-1.3,4.2-0.5,5.5C41.6,221.2,42.3,219.6,41.9,217.7z M191.2,186.8c-0.1-1.5-0.6-2.9-1.4-4.2c-0.2-0.3-0.4-0.8-0.9-0.5
			c-0.5,0.2-0.3,0.7-0.2,1.1C189.2,184.5,190.1,185.8,191.2,186.8z M92.5,64.7c0-0.3,0-0.6,0-0.8c-0.1-0.5,0.1-1.2-0.6-1.2
			c-0.6,0-0.6,0.7-0.7,1.2c0,0.2,0,0.3,0,0.5c0.1,0.8-0.3,2.1,0.7,2.1C92.9,66.6,92.3,65.3,92.5,64.7z M39,161.5
			c-0.7,1.4-0.6,2.8-0.8,4.2c0,0.3,0.1,0.6,0.4,0.7c0.3,0,0.5-0.2,0.6-0.5C39.5,164.4,39.7,162.9,39,161.5z M289.1,269.9
			c-0.9,1.7-0.7,3.1-0.8,4.5c0,0.2,0.2,0.5,0.4,0.4c0.3-0.1,0.5-0.3,0.6-0.5C290,272.9,289.9,271.6,289.1,269.9L289.1,269.9z
			 M282.6,87.9c0.4,0.6-0.4,1.9,0.8,1.9c1,0,1-1.1,0.9-1.8c0-0.7-0.3-1.8-1.2-1.7C282.2,86.3,282.6,87.3,282.6,87.9L282.6,87.9z
			 M54.4,117.2c-0.3-0.6,0.5-1.9-0.8-2c-1,0-0.7,1.2-0.7,1.9s-0.2,1.9,0.8,1.9C54.7,119.2,54.1,118,54.4,117.2L54.4,117.2z
			 M92.9,146.2c1.1-1.6,1.6-3.6,1.4-5.5C93.2,142.3,92.7,144.3,92.9,146.2z M272.2,83.6c-0.2-0.8-0.2-2-1.3-2.2
			c-0.7-0.1-0.7,0.6-0.6,1.1c0.1,0.9,0,2.1,1.2,2.3C272.1,84.8,272.2,84.2,272.2,83.6z M138.8,11.7c-0.5,0-1-0.1-1.1,0.4
			c-0.2,0.6,0.4,0.8,0.8,0.9c1,0.3,1.8,1,2.9,0.7c0.2-0.1,0.3-0.3,0.2-0.5c0,0,0-0.1,0-0.1C140.8,12.2,139.8,11.9,138.8,11.7z
			 M39.2,185c0.8-1.2,1.1-2.7,0.8-4.2c-0.1-0.3-0.2-0.7-0.6-0.7c-0.4,0-0.5,0.4-0.6,0.7C38.6,182.2,38.7,183.6,39.2,185L39.2,185z
			 M16.1,254.2c-0.8,1-1,3.8-0.4,4.5c0.1,0.2,0.3,0.4,0.6,0.3c0.3-0.1,0.5-0.4,0.5-0.7C16.5,257,16.7,255.6,16.1,254.2z M46.8,223.2
			c-0.6,1.4-1.1,2.6-1.6,3.7c-0.1,0.2-0.2,0.4-0.2,0.6c-0.1,0.3,0,0.5,0,0.8c0.1,0.2,0.4,0.1,0.6,0
			C46.5,227.7,47.4,224.7,46.8,223.2z M123.7,46.5c0-0.5-3-3.6-3.4-3.6c-0.2,0-0.4,0.1-0.6,0.2c-0.2,0.2-0.1,0.6,0.1,0.8
			c1,1,1.9,1.9,2.9,2.8c0.2,0.2,0.5,0.3,0.8,0.2C123.6,46.8,123.7,46.6,123.7,46.5z M129,196.7c1-2,1.5-4.1,1-6.4
			C129.3,192.4,128.4,194.4,129,196.7z M283.6,81.9c0-0.7,0.1-1.6-0.8-1.5c-0.9,0.1-0.6,0.9-0.6,1.5c0,0.7,0.1,1.3,0.1,2
			c0.1,0.5,0,1.2,0.7,1.2c0.7,0,0.6-0.7,0.6-1.2C283.6,83.3,283.6,82.6,283.6,81.9L283.6,81.9z M46.4,119.9c1.2-2,0.8-3.5,0.5-5.1
			c-0.1-0.3-0.3-0.5-0.6-0.4c-0.2,0.1-0.3,0.3-0.4,0.5C45.6,116.5,45.9,118,46.4,119.9z M124.3,196.4c0-0.7,0.2-1.4-0.5-1.5
			c-0.7,0-0.7,0.7-0.7,1.1c-0.1,1.2-0.2,2.4-0.5,3.5c-0.1,0.3-0.2,0.8,0.2,0.9c0.5,0.2,0.7-0.4,0.8-0.7
			C123.8,198.6,124.1,197.4,124.3,196.4z M284.4,94.3c-0.3-0.8,0.4-2.3-0.8-2.4c-0.6,0-0.9,1.6-0.7,2.5c0.2,0.8-0.2,2.2,0.7,2.2
			C284.8,96.5,284.2,95.1,284.4,94.3z M154.3,191.6h0.6c0.1-1.6,0.2-3.2,0.3-4.8c0.1-0.4-0.2-0.7-0.5-0.8c-0.4-0.1-0.6,0.3-0.6,0.6
			C154,188.4,153.8,190.1,154.3,191.6z M267.2,61.8c0.1,0.8,0.3,1.7,0.5,2.7c0.1,0.3,0.2,0.7,0.7,0.6c0.4-0.1,0.6-0.4,0.5-0.8
			c0,0,0,0,0,0c-0.1-1.3-0.3-2.5-0.5-3.8c0-0.2-0.2-0.4-0.4-0.5c-0.3-0.1-0.5,0.2-0.6,0.5C267.2,60.8,267.2,61.2,267.2,61.8
			L267.2,61.8z M43.9,177.6c0.4,0.5-0.4,1.8,0.7,1.9c0.9,0.1,0.8-1.2,0.9-1.9c0.1-0.7,0.1-1.5-0.5-2c-0.2-0.2-0.5-0.2-0.8,0
			C43.6,176.1,43.9,176.8,43.9,177.6z M207.1,183.6c-0.3,0-0.5,0.3-0.4,0.6c0,0,0,0,0,0c0.1,1,0.3,2,1,2.8c0.4,0.5,0.9,0.7,1.5,0.2
			c0.5-0.5,0.5-1,0-1.5c-0.6-0.5-1-1.1-1.3-1.7C207.6,183.7,207.4,183.6,207.1,183.6z M278.4,201.5c-0.7,0.2-0.7,0.7-0.5,1.2
			c0.5,1.5,1.2,2.9,1.8,4.4c0.1,0.3,0.3,0.9,0.8,0.6c0.5-0.2,0.2-0.7,0.1-1.1c-0.7-1.4-1.1-2.9-1.5-4.5
			C279,201.8,278.8,201.5,278.4,201.5L278.4,201.5z M281.9,238.5c0.3,0.7-0.3,2.3,0.8,2.3c1.2,0,0.9-1.6,0.9-2.5
			c0-0.7,0-1.9-1.1-1.8C281.5,236.7,282,237.7,281.9,238.5z M117.1,169.6c0-0.4,0.1-0.8-0.3-1c-0.2-0.1-0.5-0.1-0.6,0.1
			c0,0.1-0.1,0.1-0.1,0.2c-0.5,1.4-1,2.9-1.4,4.3c-0.1,0.3,0,0.7,0.4,0.8c0,0,0.1,0,0.1,0c0.4,0.1,0.6-0.2,0.7-0.6
			C116.3,172.1,116.7,170.8,117.1,169.6z M119.7,187.9c0,0.5-0.1,1,0.4,1.1c0.4,0.1,0.6-0.3,0.7-0.6c0.7-1.4,0.5-3.1,0.9-4.6
			c0.1-0.2-0.1-0.5-0.3-0.6c0,0-0.1,0-0.1,0c-0.3,0-0.5,0.3-0.6,0.5C120.4,185.2,120,186.7,119.7,187.9z M168.5,6.4
			c2.2,0.8,4.4,0.4,6.6,0.1C172.9,5.1,170.7,6,168.5,6.4z M276.3,57.7c-0.8,1.7,0.6,2.8,0.3,4.2c-0.1,0.4-0.2,1,0.4,1.1
			c0.7,0.1,0.9-0.5,1-1.1C278.5,60.2,277.4,59.1,276.3,57.7L276.3,57.7z M141.7,3c-0.4-0.1-0.9-0.1-1.4-0.1c-0.4,0-0.7,0.2-0.7,0.6
			c0,0.3,0.3,0.5,0.6,0.5c0,0,0,0,0,0c1.5,0,2.9,0.4,4.4,0.2c0.4-0.1,0.9-0.2,0.9-0.6s-0.5-0.5-0.8-0.7C143.5,2.5,142.4,3,141.7,3z
			 M269.6,120.2c-0.1-1.1-0.3-2.3-0.7-3.3c-0.1-0.4-0.3-0.8-0.8-0.7c-0.5,0.1-0.4,0.6-0.3,1c0.3,1,0.4,2,0.5,3
			c0,0.6-0.1,1.5,0.8,1.4C269.7,121.5,269.5,120.7,269.6,120.2L269.6,120.2z M16.8,199.7c0-1.1-0.2-2.1-0.6-3.1
			c-0.1-0.3-0.2-0.7-0.7-0.6c-0.4,0.1-0.4,0.5-0.4,0.8c0.1,1.1,0.2,2.1,0.3,3.2c0.1,0.6-0.2,1.7,0.7,1.6c0.9,0,0.5-1.1,0.6-1.7
			C16.8,199.8,16.8,199.8,16.8,199.7L16.8,199.7z M70.4,221.4c-1.1,1.1-1.9,2.4-2.4,3.8c-0.2,0.6-0.1,1.1,0.6,1.4
			c0.7,0.2,1-0.3,1.2-0.7C70.4,224.4,70.6,222.9,70.4,221.4L70.4,221.4z M59.8,256.8c1.6-1.9,2.5-4.3,2.8-6.7
			C60.6,251.9,60.3,254.4,59.8,256.8L59.8,256.8z M23.3,124.5L23.3,124.5c-0.1-1.1-0.2-2.2-0.4-3.3c-0.1-0.4-0.1-0.9-0.7-0.8
			c-0.4,0.1-0.4,0.5-0.4,0.8c0,1.4,0,2.7,0.1,4.1c0,0.5,0,1.2,0.6,1.2c0.8,0,0.6-0.8,0.7-1.3C23.3,124.9,23.3,124.7,23.3,124.5
			L23.3,124.5z M108.3,138.6c0,0.1-0.1,0.5,0.2,0.7c0.4,0.2,0.6-0.2,0.7-0.5c0.9-1.6,1.3-3.4,1.8-5.2c0.1-0.3,0.1-0.6-0.3-0.7
			c-0.2,0-0.4,0.1-0.5,0.3C109.6,134.9,108.3,136.4,108.3,138.6z M51.3,280.9c0-0.4,0.1-0.9-0.3-1c-0.5-0.2-0.7,0.3-0.8,0.7
			c-0.5,1-1,1.9-1.4,2.9c-0.2,0.4-0.6,1,0,1.3c0.6,0.4,1.1,0,1.5-0.5C51,283.3,51,282,51.3,280.9z M147.7,73.7
			c0.8-2,0.4-3.9-0.1-5.8c-0.1-0.3-0.2-0.8-0.6-0.7c-0.4,0.1-0.5,0.5-0.5,0.8C146.5,69.9,146.8,71.9,147.7,73.7z M236.3,261.1
			c-0.3,0.1-0.5,0.4-0.4,0.7c0,0.1,0.1,0.1,0.1,0.2c0.9,1.6,2.3,2.6,3.9,3.4c0.3,0.1,0.6,0.2,0.7-0.2c0.1-0.3,0-0.5-0.2-0.8
			c-1.1-1.3-2.8-1.9-3.8-3.3C236.7,261.2,236.5,261.2,236.3,261.1L236.3,261.1z M242.1,249.7c-1.5-1.8-3.5-3.2-5-5
			c-0.2-0.3-0.7-0.3-0.9-0.1c-0.3,0.2-0.3,0.6-0.1,0.8c0,0,0,0.1,0.1,0.1C237.8,247.3,239.8,248.7,242.1,249.7z M195.3,203.6
			c0.9,2.6,1.8,4.9,3,7.1c0.2,0.3,0.5,0.8,0.9,0.5c0.5-0.3,0.2-0.7,0.1-1c-0.8-1.8-1.5-3.5-2.4-5.2
			C196.6,204.4,196.4,203.8,195.3,203.6L195.3,203.6z M109,176.1c0-0.4,0.1-0.8-0.4-0.9c-0.3-0.1-0.5,0.2-0.7,0.4
			c-0.6,1.4-1.3,2.8-1.9,4.2c-0.1,0.3-0.2,0.7,0.1,0.9c0.4,0.3,0.8,0,1-0.3C108.2,179.2,108.8,177.7,109,176.1z M237.4,135.1
			c-0.1-0.2-0.2-0.5-0.4-0.6c-1.5-1.4-2.7-3.1-4-4.6c-0.3-0.3-0.7-0.8-1.1-0.4c-0.5,0.5-0.1,1,0.3,1.3c1.4,1.1,2.3,2.5,3.3,3.9
			c0.3,0.4,0.7,0.8,1.1,1C236.9,135.9,237.3,135.7,237.4,135.1z M227.6,168.4c-1,0.1-0.8,0.6-0.7,0.9c0.8,1.8,1.9,3.4,3.3,4.9
			c0.2,0.2,0.6,0.5,0.9,0.2c0.5-0.3,0.1-0.7-0.1-1c-1-1.5-2.1-2.9-3.1-4.4C227.8,168.8,227.7,168.6,227.6,168.4z M269.7,142.3
			c-0.3-1.7-1.2-3.4-1.8-5.2c-0.1-0.3-0.4-0.6-0.8-0.5c-0.4,0.2-0.5,0.6-0.4,0.9c0,0,0,0,0,0.1c0.6,1.7,1.2,3.4,1.6,5.2
			c0.1,0.4,0.3,0.8,0.8,0.7C269.7,143.4,269.6,142.9,269.7,142.3L269.7,142.3z M119,294.3c-0.3,0-0.5-0.1-0.8-0.1
			c-0.5,0-1.4-0.5-1.5,0.3c-0.1,0.7,0.8,0.9,1.4,0.9c1.6,0.1,3.2,0.2,4.8,0.2c0.5,0,1.2,0.1,1.2-0.6c0-0.5-0.6-0.6-1-0.8
			C121.7,293.8,120.3,294.5,119,294.3z M157.4,268.7c-0.4-2-0.8-4.1-1.6-6.1c-0.1-0.3-0.2-0.6-0.6-0.6c-0.3,0-0.5,0.3-0.4,0.6
			c0.3,2.2,0.8,4.4,1.6,6.5c0.1,0.3,0.4,0.5,0.7,0.4C157.5,269.5,157.4,269.2,157.4,268.7L157.4,268.7z M122.2,274.1
			c-0.5,0.2-0.6,0.4-0.5,0.6c0.5,2.4,0.7,4.8,0.8,7.2c0,0.2,0.1,0.4,0.2,0.6c0.1,0.3,0.4,0.6,0.8,0.5c0.3-0.1,0.4-0.4,0.4-0.7
			C123.8,279.5,123.1,276.8,122.2,274.1z M221.1,116.5c-0.7,0.2-0.5,0.6-0.2,0.9c1.3,1.7,2.6,3.4,4,5.1c0.3,0.4,0.8,0.9,1.3,0.5
			c0.5-0.4,0-0.9-0.2-1.4c-0.1-0.3-0.3-0.5-0.5-0.6c-1.1-0.7-1.8-1.7-2.2-2.9C223,117.1,221.9,117,221.1,116.5z M277.5,200.2
			c0.6-0.7,0.3-1.1,0.2-1.6c-0.6-1.8-1.1-3.5-1.7-5.3c-0.3-0.8-0.6-1.6-1-2.3c-0.1-0.2-0.3-0.3-0.5-0.4c-0.4,0-0.4,0.4-0.4,0.6
			C274.9,194.3,276,197.3,277.5,200.2L277.5,200.2z M296.1,244.1c0.5-1.6,1.1-3.1,1.6-4.6c0.3-0.8,0.4-1.7,0.2-2.5
			c-0.1-0.4-0.4-0.7-0.8-0.7c-0.4,0-0.6,0.4-0.6,0.7C296,239.3,295.5,241.6,296.1,244.1z M208.3,133.7c0.7-0.1,1.9,0,1.8-1.3
			c-0.1-1.3-1-1.7-2.1-1.7c-1,0-1.9,0.4-1.9,1.5C206.1,133.6,207.1,133.6,208.3,133.7L208.3,133.7z M283,252c0.9-2.7,1-5.5,0.4-8.3
			c-0.1-0.3-0.2-0.7-0.6-0.8c-0.5,0-0.7,0.4-0.7,0.8c0,1.1,0.1,2.1,0.2,3.2C282.4,248.5,282.2,250.1,283,252z M203.6,197.8
			c-0.1-0.3-0.2-0.5-0.4-0.8c-1-1.1-1.5-2.4-2.1-3.7c-0.3-0.5-0.6-1-0.9-1.4c-0.2-0.3-0.5-0.3-0.8-0.1c-0.2,0.2-0.3,0.5-0.2,0.7
			c1,2,1.9,4,2.9,5.9c0.2,0.4,0.5,0.6,1,0.4C203.5,198.7,203.6,198.3,203.6,197.8z M7.5,54.3c0,1.3,0,2.6,0,3.9
			c0,0.7-0.3,1.7,0.7,1.8c0.9,0.1,0.9-1,1.1-1.7c0.1-0.6,0.1-1.2-0.2-1.8C9,55.7,8.8,55,8.6,54.2c-0.2-0.5,0.1-1.5-0.8-1.3
			C7.1,53,7.3,53.8,7.5,54.3z M156,163.4c-0.2,0-0.5,0.2-0.5,0.4c-0.6,3.7-0.9,7.4-0.9,11.1c0,0.3,0,0.8,0.5,0.7
			c0.5-0.1,0.5-0.6,0.5-1c-0.2-3.3,0.6-6.6,0.7-9.9C156.3,164.3,156.5,163.7,156,163.4z M255.2,198.2c1.9,3.1,3.3,6.1,5.3,8.9
			c0.2,0.3,0.6,0.6,1,0.3c0.4-0.3,0.2-0.8,0-1.2c-1.3-2.6-3.1-4.8-4.7-7.2C256.6,198.6,256.3,198.2,255.2,198.2z M204.9,71.4
			c-0.1-1.1-0.5-1.9-1.8-1.8c-1.3,0.1-2.2,0.8-2.2,2.1c0,1.2,0.8,1.7,1.9,1.7C204.2,73.5,204.8,72.7,204.9,71.4L204.9,71.4z
			 M256.9,153c-0.1-1.4-0.6-2.5-0.8-3.6c-0.4-2.1-1.2-4.1-1.8-6.1c-0.1-0.4-0.3-1-0.9-0.8c-0.5,0.1-0.5,0.7-0.5,1.1
			c0,0.4,0.1,0.9,0.3,1.3c0.7,2,1.4,3.9,2.1,5.9C255.6,151.5,255.8,152.4,256.9,153z M43.5,61.2c0.9,4,0.4,8,2.4,11.7
			C46.8,70.6,45.2,62.4,43.5,61.2L43.5,61.2z M265.6,241.1c-0.2,1.1,0.7,1.7,0.6,2.5c-0.1,2.7,2.3,4.1,3.5,6.1
			c0.2,0.4,0.8,0.6,1.2,0.3c0.1,0,0.1-0.1,0.2-0.1c0.5-0.5,0-0.9-0.3-1.3c-1-0.9-1.7-2-2.1-3.2C268.2,243.8,267.1,242.4,265.6,241.1
			z M28.2,60.7c-0.2-2.4-0.5-4.8-0.7-7.2c0-0.4-0.2-0.9-0.8-0.9c-0.6,0-0.8,0.5-0.7,1c0.2,2.7,0.3,5.4,1.1,8c0.1,0.4,0.3,1,0.9,0.9
			c0.5-0.1,0.4-0.6,0.4-1C28.2,61.1,28.2,60.9,28.2,60.7L28.2,60.7z M11.2,88.7h0.1c-0.1-1.5-0.1-2.9-0.3-4.4c0-0.4-0.3-0.9-0.9-0.9
			c-0.4,0-0.6,0.4-0.6,0.7c-0.2,2.8-0.3,5.7,0.7,8.4c0.1,0.3,0.3,0.7,0.7,0.6c0.4-0.1,0.4-0.5,0.4-0.8C11.4,91,11.3,89.9,11.2,88.7z
			 M199.6,156.8c1.2,4.9,3.4,9.4,5.4,14C205.4,169.2,201,157.7,199.6,156.8z M104.1,240.9c-0.1,0.5-0.2,0.9,0.2,1
			c0.6,0.2,0.8-0.4,1-0.8c1.3-3.3,2.5-6.6,3.7-10c0.2-0.5,0.3-1.1-0.3-1.3c-0.6-0.2-1,0.3-1.2,0.7
			C106.3,234.1,105.2,237.6,104.1,240.9z M116.6,202.3c0.1,0.5-0.3,1.4,0.4,1.5c0.7,0.1,0.7-0.8,0.8-1.2c0.7-2.7,1.4-5.4,2-8.1
			c0.1-0.6,0.4-1.4-0.4-1.6c-0.8-0.2-1,0.6-1.2,1.2C117.3,196.8,116.4,199.4,116.6,202.3z M130.1,77.5c0.4-0.6,0.5-1.4,0.3-2.1
			c-0.7-3-1.1-6.1-1.3-9.2c0-0.9-0.3-1.8-0.8-2.6c-0.2-0.3-0.4-0.8-0.9-0.7c-0.5,0.1-0.4,0.6-0.4,1c0.1,1.1,0.2,2.1,0.3,3.2
			C128.2,70.7,129,74.1,130.1,77.5z M18,207.5c0-0.3-0.1-0.7-0.2-1c-0.2-0.5-0.1-1.3-0.9-1.2c-0.6,0.1-0.4,0.8-0.5,1.3
			c-0.4,1.9,0.1,3.9-0.4,5.9c-0.5,1.9-0.8,3.9-0.8,5.8c0,0.4,0,0.9,0.5,0.9c0.4,0,0.5-0.4,0.6-0.8C17,214.8,17.6,211.1,18,207.5z
			 M239.2,180.8c-0.2-0.8-0.5-1.6-1-2.2c-1.9-2.6-3.6-5.2-5.1-8c-0.5-0.8-1-1.6-1.6-2.4c-0.2-0.3-0.5-0.7-1-0.4
			c-0.4,0.3-0.2,0.8,0,1.1c0.4,0.6,0.9,1.1,1.3,1.8c1.9,2.7,2.8,6.1,5,8.7c0.5,0.6,0.9,1.3,1.5,1.9c0.2,0.2,0.4,0.2,0.6,0.2
			C239.2,181.4,239.3,181.2,239.2,180.8z M12,98.8h0.1c-0.1-1-0.2-2-0.4-3c-0.1-0.5-0.1-1.2-0.8-1.1c-0.7,0-0.6,0.8-0.6,1.2
			c0.3,3.9,0.6,7.9,1,11.8c0,0.5,0.1,1.2,0.8,1.1c0.7-0.1,0.5-0.8,0.5-1.3C12.3,104.6,12.1,101.7,12,98.8z M283.4,223.8
			c0-1.4,0.1-2.4-0.5-3.3c-0.2-0.4-0.5-0.7-0.9-0.6c-0.4,0.1-0.7,0.4-0.7,0.9c0,0.4,0,0.9,0.1,1.3c0.2,2.9,0.7,5.8,0.5,8.7
			c-0.1,0.7-0.2,1.6,0.7,1.7c1.1,0.1,0.9-1,0.9-1.6C283.4,228.4,282.8,225.9,283.4,223.8z M206,149.5c0,1.9,0,3.8,0,5.8
			c0,1.4,0.5,2.4,2,2.3c1.6,0,1.4-1.3,1.4-2.2c0.2-4.8-0.5-9.6-0.3-14.4c0-0.1,0-0.1,0-0.2c-0.1-0.5-0.1-1.1-0.7-1.2s-1,0.3-1.2,0.7
			c-0.8,1.1-1.2,2.5-1.2,3.8C206,145.9,206,147.7,206,149.5L206,149.5z M205.5,87.9c0-2.3,0.1-4.5,0-6.8c-0.1-1.5-1.3-2-2.7-2
			c-1.4,0-1.6,1.1-1.6,2.2c0,2.4,0,4.9-0.1,7.3c-0.1,2.4-0.4,5-0.3,7.4c0.1,1.5,0.8,2.3,2.4,2.3c1.5,0,1.9-0.9,2.1-2.2
			C205.6,93.5,205.7,90.7,205.5,87.9L205.5,87.9z M71.8,96.4L71.8,96.4c0,0.9-0.1,1.8-0.1,2.7c0,1.1,0.6,1.4,1.5,1.3
			c1-0.1,1.8-0.6,2-1.6c0.6-2.2,1.3-4.5,0.7-6.8c-0.6-2.1-0.2-4.2,0.4-6.2c0.9-2.8,2.9-4.3,6.1-4.4c0.9,0,1.4-0.5,1.4-1.4
			c0-0.9-0.5-1.4-1.4-1.4c-1,0-2,0.4-2.9,1c-0.6,0.5-1.3,1-1.9,1.4c-0.8,0.6-1.5,0.6-1.7-0.6c-0.2-1-0.5-1.9-1.8-1.8
			c-1.3,0.1-1.6,1.1-1.6,2.2C72.3,86,72,91.2,71.8,96.4z M186.1,76.4c-4.1-0.1-6.5,1.8-7.1,5.1c-0.6,3,1.1,5.3,4.6,6.5
			c1.6,0.5,3.3,1,4.9,1.5c1.8,0.6,2.2,1.8,1.5,3.5c-1.1,2.7-3.9,3.4-6.3,1.6c-0.6-0.5-1.1-0.9-1.8-1.3c-0.6-0.3-1.4-0.4-1.9,0.3
			c-0.4,0.6,0,1.1,0.4,1.5c1.8,2.3,3.8,3.9,7,3c0.8-0.2,1.6-0.3,2.4-0.3c2.7-0.3,3.8-1.2,4.3-3.4c0.6-2.8-0.1-4.3-2.6-5.6
			c-2.6-1.4-5.4-2.1-8.2-3c-1.2-0.4-2.1-1.1-2.1-2.6c0-1.3,0.8-2.2,2-2.7c2.4-1.1,4.7-1.2,7,0.4c0.5,0.4,1.3,0.7,1.9,0.1
			c0.6-0.7,0.1-1.3-0.3-1.8C190.3,77.1,188.1,76.6,186.1,76.4L186.1,76.4z M110,88.1c0,3.5,1.7,7.2,4.7,10.6
			c2.5,2.7,6.6,3.2,9.6,1.2c1.7-1.2,2.8-3.1,2.9-5.2c0-0.5,0-1.1-0.6-1.3c-0.5-0.3-1.2-0.1-1.5,0.3c-0.6,0.6-1,1.3-1.6,2
			c-0.9,0.9-1.6,2.3-3.1,2.2c-4-0.2-7.1-2-6.8-6.5c0.1-1.8,0.4-3.6,0.8-5.3c0.6-2.4,1.9-4.3,4.5-4.8c2.5-0.5,4.3,0.7,5.6,2.7
			c0.4,0.7,0.9,1.2,1.8,0.9c1-0.4,0.8-1.3,0.5-2.1c-1-3.5-4.1-5.3-7.6-4.5c-1.1,0.2-2.1,0.5-3.1,0.9C112.4,80.7,109.9,84.2,110,88.1
			z M219.8,150.4v5.4c0,4.1,5.8,6.2,8.5,4.9c1.5-0.7,1.8-2.3,0.5-3.5c-0.6-0.6-1.4-0.7-2.2-0.8c-3.1-0.3-4-1.3-4-4.3
			c0-2.6,0.3-5.2,0.7-7.7c0.4-2.2,0.8-2.4,3-1.9c1.4,0.3,1.9-0.1,2-1.5c0.1-2-0.6-2.7-2.8-2.9c-2.8-0.2-3.1-0.7-2.8-3.4
			c0.1-1.1,0.2-2.3,0.2-3.4c0-0.6,0.1-1.5-0.8-1.7s-1.5,0.4-1.9,1.1c-0.4,0.7-0.4,1.6-0.4,2.5c0.1,1,0.2,1.9,0.3,2.9
			c0.1,1.1-0.4,1.9-1.6,1.9c-1.7,0-2.4,1-2.4,2.6c0,1.7,1.2,1.8,2.5,1.8c1.1,0,1.7,0.4,1.4,1.7C219.5,146.2,219.8,148.3,219.8,150.4
			z M229.3,91.5c0.6-3.4-0.6-6.7-1.5-10.1c-0.3-1-1-1.8-2-2.1c-2.5-1-4.9-0.8-7.2,0.6c-0.9,0.6-1.8,0.9-2.6-0.3
			c-0.7-0.9-1.8-0.9-2.8-0.6c-1.1,0.4-0.8,1.4-0.7,2.2c0.2,2,0.1,4-0.2,5.9c-0.5,3.1-0.5,6.3-0.1,9.4c0.1,0.9,0.2,1.8,1.4,1.7
			c1.2,0,2-0.6,2-1.8c0-1,0.1-2,0-3.1c0-3.1,0.1-6.2,1.1-9.2c0.7-2.2,2.9-3.8,4.6-3.7c1.5,0.1,2.8,1.7,3.4,4c1,3.7,1,7.5,0.8,11.3
			c-0.1,1.2,0.3,2.2,1.6,2.3c1.5,0.1,2.1-0.8,2.1-2.1C229.4,94.5,229.3,93.1,229.3,91.5z M163.9,98.8c1.9,0.1,3.8-0.2,5.6-0.9
			c2.6-1.1,3.7-3.1,3.4-5.8c-0.5-3.3-2.8-5.3-6.4-5.5c-1.5-0.1-3.1,0.1-4.6-0.6c-2.2-1.1-2.5-2.9-0.9-4.7c1.5-1.7,4.2-1.7,6.4-0.2
			c0.7,0.5,1.3,1.2,2.1,1.4c0.6,0.2,1.3,0.5,1.8-0.1c0.5-0.6,0-1.1-0.3-1.6c-1.3-2.7-4.3-4.2-7.3-3.8c-3.2,0.4-6.1,2.7-6.8,5.4
			c-0.6,2.3,0.8,4.7,3.2,5.3c0.1,0,0.3,0.1,0.4,0.1c2.6,0.4,4.7,1.8,6.5,3.6c0.9,0.9,1.3,2,0.6,3.2c-0.8,1.2-2,1.6-3.4,1.4
			c-0.9-0.2-1.7-0.7-2.4-1.2c-0.6-0.4-1.3-0.7-2-1c-0.6-0.3-1.3-0.1-1.7,0.4c-0.5,0.6-0.2,1.1,0.2,1.7
			C159.5,98.3,161.5,99.2,163.9,98.8z M172.7,144.4h-0.1c0.1,1.1,0.1,2.1,0,3.2c-0.4,3.1-1,6-4,7.9c-2.6,1.6-4.2,0.9-5.1-2
			c-1.1-3.6-1.2-7.2-1.1-10.9c0.1-1,0.2-2.6-1.3-2.8c-1.7-0.2-1.9,1.4-2,2.5c-0.5,4.5-0.3,9,0.4,13.5c0.4,2,2,3.4,3.7,4.5
			c1,0.7,2.1,0.5,3.1-0.1c1.2-0.8,2.4-1.5,3.5-2.4c1.9-1.4,1.9-1.4,3.5,0.2c0.5,0.5,1,0.9,1.7,0.7c0.7-0.2,0.4-0.9,0.4-1.5
			c-0.1-4.3-0.3-8.7,0.2-13c0.2-1.3,0.4-2.7-0.1-4c-0.3-0.7-0.7-1.4-1.5-1.3c-0.9,0.1-1.3,0.8-1.3,1.5
			C172.6,141.7,172.7,143,172.7,144.4L172.7,144.4z M146.6,89.5c2.6,0.1,4.2-1.4,3.9-3.9c-0.2-2.3-1.5-4.2-2.9-6.1
			c-0.3-0.3-0.7-0.6-1.2-0.7c-1.6-0.4-3.2-0.8-4.9-1c-2.6-0.4-5.7,1.1-6.6,3.3c-1.3,3.1-2.5,6.3-2.9,9.7c-0.4,3.3,1.2,6.2,4.1,7.7
			c3.1,1.7,9.6,0.8,12.1-1.6c0.1-0.1,0.2-0.2,0.2-0.2c0.3-0.3,0.7-0.7,0.5-1.2c-0.3-0.6-0.9-0.5-1.4-0.3c-1.5,0.4-2.9,0.9-4.4,1.4
			c-3.1,0.9-5.9-0.5-7.1-3.4c-0.8-1.9-0.2-3,1.8-3.3C140.9,89.6,143.8,89,146.6,89.5z M94.9,211.9L94.9,211.9l0-2.9
			c0-3.8-1.7-6.7-4.8-8.9c-3.3-2.3-7.8-1.3-9.4,2c-0.4,0.8-0.9,1.6,0.1,2.3c0.9,0.6,1.6,0,2.2-0.6c1.9-1.7,4.7-1.8,6.8-0.3
			c1.1,0.8,2.1,1.7,1.8,3.2c-0.2,1.5-1.5,2-2.8,2.4c-1.9,0.5-3.9,1-5.8,1.7c-2.7,1.1-4,3-4.2,5.8c-0.1,1.8,0.5,2.8,2.2,3.6
			c3.1,1.4,6,1.1,9-0.7c2.6-1.6,3.1-1.5,5.3,0.7c0.5,0.5,1,0.9,1.6,0.3c0.6-0.6,0.3-1.2-0.4-1.6c-1.1-0.6-1.5-1.7-1.5-2.9
			C94.9,214.6,94.9,213.3,94.9,211.9L94.9,211.9z M91.1,151.4c-0.1-1.8-0.3-3.7-0.8-5.5c-0.5-2.1-1.6-3.8-3.9-4.5
			c-1.4-0.4-2.7-0.9-4.1-1.3c-3.1-0.7-7.7,1.4-8.9,4.4c-1.6,4.1-1.7,8.2-0.2,12.4c0.4,1.1,1.3,2.1,2.4,2.6c2.3,1.1,4.6,1.9,7.1,2.4
			c2.7,0.5,4.8-0.5,6.3-2.8C90.6,156.8,90.9,154.1,91.1,151.4z M214.6,205.9L214.6,205.9c0-3.6,0-7.1,0-10.7c0-1.9-1.2-2.8-3-2.5
			c-2.4,0.4-7.2,5.3-7.5,7.6c0,0.2,0,0.3,0,0.5c0,0.7,0,1.6,0.7,1.9c0.9,0.4,1.5-0.2,2.1-0.7c0.9-0.7,1.4-1.7,2.1-2.6
			c0.4-0.5,0.7-1.4,1.5-1.2c0.9,0.2,0.7,1.2,0.9,1.9c0.2,1,0.2,2,0.3,3c0.3,4.2,0.7,8.3,0.5,12.5c-0.1,2.2-0.7,2.7-2.8,2.7h-2.6
			c-1.5,0-2.2,0.8-2.1,2.2c0.1,1.5,0.7,2.1,2.3,1.9c1.9-0.2,3.7-0.5,5.6-0.4c2.7,0.1,5.4-0.1,8.1,0.3c1.3,0.2,2.3-0.2,2.4-1.7
			c0.1-1.5-0.7-2.2-2.2-2.2c-1,0-2.1,0-3.1,0.1c-2.7,0.3-3.2-0.1-3.2-2.7C214.6,212.6,214.6,209.2,214.6,205.9z M180.8,153.1
			c0,1.1-0.1,2.2,0,3.2c0.1,0.9,0.3,1.9,1.5,1.9c1.1,0,1.4-0.9,1.5-1.8c0.4-2.7,1-5.4,1.1-8.1c0.1-2.7,1.3-4.4,3.6-5.7
			c2.2-1.3,3.9-0.8,4.8,1.5c0.8,2,1.3,4.2,1.3,6.4c0,2,0,4,0.1,5.9c0,0.9,0.3,1.9,1.5,2c1.2,0.1,1.9-0.5,2.2-1.7
			c0.3-1,0.4-2.1,0.4-3.2c0-3.6-0.4-7.1-0.4-10.7c0-4-2.9-6.3-6.9-5.8c-1.8,0.2-3.6,0.9-5,2c-0.4,0.3-1,1-1.4,0.2
			c-0.4-0.9-0.9-1.4-2-1.1c-1.1,0.4-1.5,1.3-1.4,2.3C181.8,144.8,181,148.9,180.8,153.1z M118.2,220.6c0,1.6-1,3.4-2.5,4.9
			c-1.1,1.1-2.3,0.8-3.5,0.5c-0.3-0.1-0.6-0.1-0.9,0c-0.8,0.2-1.4,0.9-1.5,1.7c-0.1,1,0.6,1.3,1.4,1.4c1,0.2,1.9,0.4,2.9,0.5
			c2.6,0.5,4-0.2,5.3-2.4c1-1.7,1.8-3.5,2.4-5.4c1.7-5.2,3.8-10.3,5.9-15.4c0.5-1.2,0.9-2.6,1.4-3.8c0.5-1.4-0.1-2-1.4-2.3
			c-1.4-0.4-2,0.4-2.5,1.5c-1.2,2.9-2.3,5.8-3.5,8.7c-0.2,0.6-0.5,1.1-0.7,1.7c-0.3,0.6-0.7,1.1-1.4,1.1c-0.8,0-1-0.6-1.2-1.2
			c-0.2-0.5-0.3-1.1-0.5-1.6c-0.8-3.1-2.1-6-3.5-8.8c-0.5-1-1.3-1.8-2.5-1.3c-1.2,0.5-0.6,1.5-0.4,2.3c0.9,3,2.3,5.8,2.9,8.9
			c0.5,2.2,1.4,4.3,2.7,6.2C117.8,218.6,118.2,219.6,118.2,220.6z M239.4,168.3c2.5,0.2,4.2-0.9,5.3-3.1c0.8-1.5,1.4-3.1,1.9-4.7
			c0.4-1.3,0.8-2.6,1.4-3.8c2.3-5,3.1-10.5,4.4-15.8c0-0.2,0-0.3,0-0.5c0-0.7-0.2-1.4-0.9-1.7c-0.8-0.3-1.5,0-1.9,0.7
			c-0.3,0.4-0.6,0.9-0.8,1.5c-1.2,3.4-2.9,6.5-3.8,10c-0.1,0.4-0.2,1-0.8,1c-0.6,0-0.8-0.4-0.9-0.9c-0.6-1.4-1.2-2.8-1.7-4.3
			c-0.8-2.2-1.5-4.4-2.5-6.5c-0.4-1-1.4-1.9-2.6-1.4c-1.2,0.5-0.5,1.6-0.2,2.4c1.8,5.2,3.7,10.3,5.6,15.5c0.3,0.7,0.5,1.4,0.5,2.1
			c-0.4,4.2-2.2,6.2-6.3,7.4c-0.1,0-0.2,0-0.3,0.1c-0.4,0.2-0.9,0.3-0.9,0.9c0,0.5,0.5,0.7,1,0.7
			C236.9,168.1,238.1,168.2,239.4,168.3z M151.3,221.9v0.1c1.9-0.2,3.9-0.3,5.8-0.5c0.7-0.1,1.5,0,1.6-0.9c0.1-0.9-0.8-1-1.5-1.1
			c-2.3-0.5-4.6-0.4-7-0.2c-0.6,0.1-1.3,0.3-1.7-0.4c-0.4-0.7,0-1.2,0.4-1.7c1.8-2.1,3.5-4.3,5.4-6.4c2.3-2.6,4.4-5.3,5.5-8.7
			c0.5-1.6,0.3-3.3-0.6-4.7c-2.3-3.8-5.9-4.9-10.1-4.7c-3.8,0.2-5.5,3.1-7.2,5.9c-0.5,0.8-0.6,1.6,0.3,2.3c0.9,0.6,1.7,0.4,2.5-0.3
			c0.8-0.8,1.5-1.7,2-2.7c1-1.6,2.6-2.1,4.4-2.1c1.8,0.1,2.8,1.2,3.5,2.7c1,2.1,0.9,4.5-0.3,6.5c-2.7,4.7-6.3,8.9-10.7,12.2
			c-0.7,0.5-1.4,1-1.7,1.8c-0.4,0.8-0.7,1.7-0.1,2.6c0.6,0.9,1.4,0.8,2.3,0.7C146.5,222.2,148.9,222,151.3,221.9z M105.9,88.2
			c0-2.1-0.3-4.2-0.8-6.2c-0.3-1.1-0.7-2.1-1.8-2.6c-1.8-0.7-3.6-1.5-5.5-1.9c-5.1-1-7.7,0.9-9.4,5.7c-1.2,3.6-1.2,7-0.3,10.6
			c1.3,5.1,2.5,6.4,7.6,7.3c4.1,0.7,7.2-1,8.7-4.9C105.5,93.8,105.9,91,105.9,88.2z M116.2,151.4c-0.1,2.3,0.1,4.6,0.4,6.9
			c0.1,1,0.3,2,1.6,2c1.3,0,2-0.7,2.1-2c0.1-0.8,0-1.6,0.1-2.4c0.1-3.4-0.7-6.9-0.2-10.3c0.3-1.8,0.2-3.4-1.6-4.4
			c-2.1-1.2-4.5-2.2-6.8-0.8c-1.7,1.1-3,0.9-4.5,0c-2.3-1.4-3.6-1.2-5.4,0.7c-0.7,0.8-1.4,1-2.4,0.6c-1.6-0.7-2.3-0.3-2.4,1.4
			c-0.1,5.1-0.4,10.1-1,15.2c-0.1,1.1,0.2,2.2,1.6,2.3c1.4,0.1,2.1-0.8,2.1-2.1c0-3.3,0.5-6.6,0.4-10c0-0.7,0-1.5,0.2-2.2
			c0.4-1.8,2.4-3.2,4.2-3.1c1.6,0.2,2.4,1.2,2.4,3.5c0.1,2.6,0.5,5.2,0.4,7.8c-0.1,1.3,0,2.7,0.1,4.1c0,0.9,0.5,1.6,1.5,1.6
			c1,0,1.2-0.8,1.2-1.6c0.1-1.7,0.1-3.5-0.1-5.2c-0.3-2.4-0.3-4.7-0.1-7.1c0.2-1.9,1.8-3.2,3.8-3.1c1.7,0.1,2.5,1.1,2.6,3.3
			C116.2,147.9,116.2,149.3,116.2,151.4z M234.5,87.4c0,2,0.1,3.4,0.2,4.8c0.4,4.6,7.4,9,12.1,4.8c0.1-0.1,0.3-0.2,0.4-0.3
			c0.6-0.4,1-0.3,1.3,0.4c0.7,2.1-0.1,5.2-1.7,6.5c-1.4,1.1-3.4,1-5.7-0.5c-0.9-0.6-1.8-1.2-2.7-1.8c-0.4-0.3-1-0.5-1.4,0
			c-0.5,0.5,0,1,0.3,1.4c2.3,3.5,5.9,4.4,9.9,4.4c2.9,0,4.5-1.6,4.6-4.4c0.2-3.2,0.6-6.4,0.3-9.6c-0.4-5.4-0.3-10.8,0.5-16.2
			c0.1-0.8,0.1-1.5-0.9-1.8c-0.9-0.2-2-0.2-2.3,0.7c-0.6,1.7-1.4,1-2.5,0.7c-1.8-0.5-3.7-1.8-5.6-0.9c-3.1,1.5-5.5,3.6-6.3,7.1
			C234.6,84.3,234.5,85.9,234.5,87.4L234.5,87.4z M232.1,201.5c0.1,0.8,0.1,1.6,0.3,2.3c0.3,1.3,0.6,2.5,0.9,3.8
			c0.8,3.1,5.8,5.5,8.7,4.1c1.2-0.5,2.3-0.9,3.5-1.3c1.2-0.4,1.8,0.1,1.7,1.3c-0.1,2-0.3,4-1,5.8c-0.9,2.4-3.5,3.5-5.9,2.5
			c-1.8-0.6-3.3-1.9-4.3-3.5c-0.3-0.6-0.9-1.1-1.7-0.8c-0.8,0.2-1.1,1-1.1,1.7c-0.1,2.5,2.2,6.1,4.3,6.8s7.8-0.5,8.7-2.3
			c1.4-2.6,3.2-5,4.1-7.9c1.4-4.7,0.8-9.2-0.3-13.7c-0.5-2.2-1.4-4.5-3.5-5.9c-2-1.2-4.2-2.2-6.4-2.8c-1.1-0.3-2.1-0.2-2.9,0.5
			C234.6,194.7,231.9,197.3,232.1,201.5z M152.7,146.9c0.2-2-0.2-4-1-5.8c-0.8-1.7-1.6-2.1-3.4-1.6c-1.3,0.3-2.6,1-3.9,1.2
			c-1,0.1-1.8,0-2.5-0.7c-1.5-1.7-3.3-1.9-5.3-1.3c-1.2,0.4-2.3,1-3.2,1.9c-0.7,0.7-1.4,0.9-2.1-0.1c-0.4-0.6-0.9-1.4-1.7-1.1
			c-0.9,0.3-0.6,1.3-0.6,2c0,5.1,0.1,10.3-0.6,15.4c-0.1,0.8,0,1.7,0.3,2.5c0.2,0.6,0.7,1.1,1.4,1c0.7,0,1.3-0.5,1.5-1.2
			c0.1-0.5,0.1-1,0.2-1.5c0.2-3.7,0.7-7.4,1.4-11.1c0.2-1.4,0.9-2.7,1.9-3.7c0.6-0.7,1.6-0.9,2.5-0.7c1,0.3,1.4,1.1,1.4,2
			c0,3.3,0.8,6.6,0.2,10c-0.3,1.4-0.2,2.8,0.3,4.2c0.3,0.7,0.7,1.2,1.5,1.1c0.7,0,1.3-0.6,1.4-1.3c0.2-1.8,0.8-3.5,0.6-5.3
			c-0.4-2.8-0.1-5.7,0.9-8.3c0.6-1.4,1.3-2.5,3.1-2.4c1.7,0.2,2.1,1.6,2.2,3c0.3,2.6,0.2,5.2,0,7.8c-0.2,1.7-0.2,3.5-0.1,5.2
			c0.1,1.2,0.9,1.8,2.1,1.7c1.2-0.1,1.4-0.9,1.2-2c-0.1-0.6-0.1-1.1,0-1.7C152.4,153,152.5,149.9,152.7,146.9L152.7,146.9z
			 M54.1,220.8c1.9,0.1,3.9,0,5.8-0.4c3.2-0.5,5.3-2.3,6.1-5.4c0.4-1.5,0.8-3,1-4.5c0.6-4.2,0.6-8.4-1.3-12.3
			c-1.3-2.8-3.3-4.9-6.5-5.9c-3.2-1-6.3-1.3-9.5-1.6c-2.6-0.3-3.1,0.2-3.2,2.8c-0.2,5.2,0.4,10.4,0.3,15.6c0,3-0.2,6-0.4,9
			c-0.1,1.6,0.6,2.3,2.1,2.5C50.5,220.8,52.3,220.9,54.1,220.8z M171.2,211.4c0,5.6,2.8,9.6,7.3,11c6.3,1.9,13.5-2.9,14.2-9.9
			c0.5-4.6,0.6-9.2-0.9-13.7c-1.2-3.5-3-5.8-7-5.9c-0.5,0-0.9-0.2-1.3-0.4c-1.3-0.8-2.5-0.6-3.7,0.1c-0.8,0.5-1.7,0.9-2.6,1.4
			c-2.3,1.2-3.7,3.1-4.5,5.5C171.5,203.5,171.6,207.7,171.2,211.4z M52.1,92.8h0.1v-3.2c0-1.5,0.8-2.3,2.3-2.3c1.2,0,2.4,0,3.6,0
			c7.1-0.3,8.5-0.9,9.3-8.5c0.4-3.2-0.3-6.7-3.5-8.5c-3.8-2.1-8-2.8-12.3-2.5c-2.9,0.2-3.6,1.2-4,4.1c-0.5,3.4-0.1,6.8-0.6,10.1
			c-0.8,4.9,0,9.8,0.3,14.7c0,0.4,0.1,0.8,0.3,1.1c0.5,1.4,1.3,1.7,2.7,1.2c1.1-0.4,1.8-1.4,1.8-2.5C52.2,95.3,52.1,94,52.1,92.8
			L52.1,92.8z M62.9,122c-0.2,0.2-0.5,0.2-0.5,0.4c-0.4,1.1-0.7,2.3-1,3.4c-0.6,1.9-0.9,2.1-2.8,1.6c-1.4-0.4-2.7-0.6-4-0.1
			c-2.5,1-5,1.9-6.1,5c-0.9,2.5-2.1,5-2.6,7.7c-0.8,4.6-0.3,9.2,0.4,13.8c0.5,3.2,2.1,5.4,4.7,7.2c0.8,0.5,1.7,1,2.5,1.4
			c1,0.5,1.2,1.2,1.3,2.3c0.2,3.1-0.3,6.2-0.5,9.3c0,0.6-0.4,1.8,0.5,1.8c0.7,0,0.9-1.1,0.9-1.8c0.2-2.8,1-5.5,0.5-8.4
			c-0.3-1.5,0.3-2,2-2c5.1-0.1,9-1.9,10.6-7.1c0.2-0.8,0.6-1.5,0.9-2.2c0.5-1.4,0-2.4-1.2-3.1c-1.2-0.6-2.4-0.7-3.7-0.6
			c-1,0.1-1.7,0.6-1.9,1.6c-0.2,1.2-1,2.1-1.8,3c-1.4,1.6-2.9,1.6-4.7,1c-1.7-0.5-2.6-1.7-2.8-3.5c-0.2-1.9-0.6-3.8-0.7-5.7
			c-0.2-3.3,0.3-6.5,1.9-9.5c0.4-0.7,0.9-1.3,1.5-1.8c2.2-1.4,4.6-0.2,5.9,2.8c1,2.3,5.5,3.1,7.2,1.1c0.2-0.3,0.4-0.6,0.5-0.9
			c0.8-3.1-1.8-8.1-4.8-9.4c-2.7-1.1-2.8-1.4-2.3-4.3C62.9,123.9,63.4,123,62.9,122z M2.1,14.5c0.6,0.1,0.9,0.7,0.8,1.3
			C2.8,20.1,5,23.9,5.2,28.1c0,0.4,0.2,0.8,0.3,1.1c0.2,0.4,0.4,0.7,0.9,0.5c0.4-0.2,0.6-0.6,0.4-1c0,0,0,0,0-0.1
			c-0.5-1-0.5-1.6,0.6-2.3c0.9-0.6,0.5-5.2-0.3-6c-0.2-0.2-0.4-0.3-0.6-0.3c-0.4,0-0.4,0.4-0.3,0.7c0.2,0.8,0.4,1.6,0.2,2.5
			c-0.7-0.2-0.6-0.8-0.6-1.1c-0.1-2.8-1.1-5.4-1.3-8.1c-0.1-1.7-1.1-2.9-3.1-3.1c-0.5,0-1.2,0-1.3-0.6C0,9.6,0.6,9.4,1.1,9.1
			c0.9-0.6,2-0.5,3-0.3c3.1,0.6,6,0.1,8.9-0.8c2.9-0.8,5.8-1.5,8.7-2c1.1-0.2,2.2,0.3,3.4,0.4c3.3,0.3,6.5-0.5,9.7-1.3
			c1.5-0.4,3.1-0.5,4.6-0.3c1.1,0.2,2.2,0.2,3.3,0c0.7-0.1,1.4-0.1,2,0.1c5.1,1.6,10.4,1.7,15.7,1.3c0.3-0.1,0.7-0.1,1,0
			c3,1.1,6,0.9,9.1,0.7c1-0.1,2,0.1,3-0.6c0.4-0.3,1-0.4,1.5-0.2c1.9,0.8,3.7,0.2,5.6-0.1c4.3-0.7,8.4-1.3,12.7,0.3
			c3.7,1.4,7.7,0.6,11.6,0.2c0.6-0.1,1.2-0.4,1.6-0.9c0.8-0.6,1.6-1.2,2.6-1.1c2.1,0,3.9-0.6,5.8-1.4c1.1-0.5,2.3-0.3,3.4-0.5
			c4.8-0.7,9.9-0.1,14.6-1.8c2.1-0.7,4.2-1,6.4-0.9c0.7,0,1.5,0.1,2.2,0.3c4.2,1.1,8.6,1,12.7,1.9c7.8,1.8,15.6,0.9,23.5,1.2
			c2.9,0.1,5.6-0.8,8.5-0.7c9.5,0.2,19,1,28.4,1.9c0.9,0.1,1.7,0.1,2.6,0c0.7-0.1,1.6-0.3,2.2,0c3.6,1.6,7.3,0.8,11,0.5
			c3.2-0.2,6.5,0,9.7,0.5c5,0.8,10,1.2,15,2.1c2,0.4,4.1-0.1,6.2,0c4.3,0.1,8.6-0.2,12.8-0.2c5.4-0.1,11-0.2,16.1,2.5
			c0.9,0.5,1.2,1.1,1.2,2.2c0.2,7.7-1.5,15.4-1,23.1c0.2,3.5,0.2,7,0.8,10.5c0.7,4,0.2,7.9-0.2,11.8c-0.4,3.4-0.4,6.8,0.6,10.1
			c0.8,2.9,1.3,6,2.6,8.8c0.9,2.1,0.4,4.2,0.5,6.4c0.2,2.5,0.2,5,0.4,7.4c0.4,3.1,0.2,6.3-0.6,9.4c-0.2,0.9-0.3,1.9-0.3,2.9
			c-0.1,2.3,0,4.6-0.3,6.9c-0.4,3.4,0.4,6.8,0.9,10.1c0.4,3.1,1,6.2,1,9.2c0.1,5.5,1,10.9,1.1,16.4c0,2.3,0.3,4.7,0.6,7.1
			c0.2,2,0.2,4.1,0,6.1c-0.2,1.9-0.2,3.8,0,5.8c0.3,3.8,0.5,7.6,0.8,11.4c0.2,2.6,0.8,5.3,0.7,7.9c-0.4,6.5,0.7,12.9,0.7,19.4
			c0,6.7,1,13.3,0.8,19.9c-0.2,5.4-0.2,10.8-0.3,16.3c-0.1,3.4-1.2,6.8-1.5,10.2c-0.8,8.7-1.9,17.4-2.2,26.1
			c-0.1,2.5,0.2,5.1,0.9,7.5c0.8,3,0.7,6.2,1,9.4c0,0.6-0.3,1.1-0.7,1.5c-0.3,0.3-0.8,0.6-0.8,0.9c-0.2,2.6-1.7,1.8-3.3,1.5
			c-2.8-0.6-5.7-0.8-8.5-1.4c-1.3-0.3-2.8,0.3-4.3,0.2c-3.4,0-6.7,0.2-10.1,0.3c-2.9,0.1-5.8-0.5-8.7-0.3c-3.8,0.2-7.5,0.4-11.3,0.6
			c-0.5,0-1,0-1.5,0c-4.8-0.6-9.6,0-14.3,0.3c-2.6,0.2-5.3,0.3-7.9-0.3c-2-0.5-4,0-5.9,0.4c-1.5,0.3-3,0.5-4.6,0
			c-1.3-0.4-2.6,0-3.9,0.2c-3.1,0.3-6.2,0.2-9.2-0.3c-2.6-0.5-5.3-1.5-8.1-1c-0.5,0-0.9-0.1-1.3-0.3c-2.2-0.9-4.3-1.3-6.4,0
			c-0.3,0.1-0.6,0.2-0.8,0.1c-3.4-0.7-6.7,0.3-10.1,0c-4.1-0.4-8.1,0.5-12,1.7c-2.9,0.9-5.9,1.6-8.8,2.3c-4.4,1.1-9.1,1.5-13.6,0.1
			c-5-1.6-10-1.3-15-0.2c-2.1,0.5-4.3,0-6.4-0.1c-3-0.1-5.9-0.9-8.8-1.3c-3.9-0.5-7.9-1.3-11.8-1.6c-5.8-0.5-11.6,0-17.2,1.4
			c-5.7,1.4-11.2,1.4-16.8,0.4c-4.1-0.7-8.1-1.4-12.2-1.6c-2.3-0.1-4.7,0.5-7.1,0.9c-4.3,0.6-8.4,0-12.6,0c-1.5,0-3.1-0.2-4.6,0.2
			c-2.9,0.7-6,1-8.8,2.3c-3,1.4-6.4,0.9-9.6,1.6c-0.9,0.2-1.3-0.6-1.3-1.5c0-1.5-0.1-2.9,0.1-4.4c0.1-1.3,0.2-2.6-0.8-3.7
			c-0.4-0.5-0.3-1.2-0.1-1.8c0.7-2.5,0.7-5,1.2-7.5c0.8-5,0.8-10.1,2.7-15c0.6-1.5,0.4-3.1,0.5-4.7c0.1-3.5,0.3-7.1-0.4-10.6
			c-0.8-4-1-8.1-0.6-12.2c0.4-3.7,0.7-7.4,0.7-11.1c0.1-4.9,0.7-9.7,1.1-14.5c0.4-5-0.2-9.9-1.5-14.7c-0.4-1.3-0.6-2.6-0.6-4
			c-0.1-6.7-0.5-13.3-2.5-19.7c-0.5-1.8-0.5-3.7-0.2-5.6c0.4-2.2,0-4.4,0.6-6.5c0.7-2.6,0.9-5.3,0.6-8c-0.4-2.9,0.3-6-1-8.9
			c-0.7-1.5-0.4-3.3,0-5c0.1-0.6,0.4-1.2,0.1-1.8c-2-3.7-2.2-7.8-2-11.9c0.3-5.9,0.6-11.8-0.4-17.6c-0.1-0.5,0-1.1-0.2-1.5
			c-1.6-3.2-0.6-6.5-0.4-9.7c0-0.2,0.1-0.5-0.1-0.6c-1.4-1.3-0.7-3-0.7-4.5c0.1-2.9,0-5.9-0.2-8.8c-0.5-6.6-1.1-13.2-0.5-19.9
			c0.1-2.4-0.1-4.8-0.7-7.1c-1.3-5.1-1.4-10.4-1.6-15.6C2.3,40.5,2.5,39.2,3,38c1.6-3.7,0.7-7.4,0-11.1c-0.4-2.4-0.9-4.8-2.1-6.9
			c-0.5-0.8-0.4-1.9,0.2-2.6C2,16.7,2.3,15.6,2.1,14.5z"/>
		<path id="Fill-3" class="st0" d="M55.3,81.1c-0.1-0.5,0-1.2-0.7-1.1c-0.8,0.1-0.7,1-0.8,1.6c-0.1,0.5,0.1,1,0.7,0.9
			C55.3,82.4,55.2,81.7,55.3,81.1L55.3,81.1z M51.5,77.5c0-1.1,0.1-2.1,0-3.2c-0.1-1.3,0.5-1.8,1.8-2c2.3-0.4,4.6-0.1,6.7,0.8
			c2.1,0.9,3.2,2.5,3.1,4.6c-0.1,2.8-1.2,4.3-3.6,5.1c-1.1,0.4-2.1,0.9-3.2,1.1c-2.9,0.7-4.7-0.6-4.7-3.6L51.5,77.5L51.5,77.5z"/>
		<path id="Fill-5" class="st0" d="M182.1,210.1c-0.3,0.1-0.4,0.4-0.3,0.7c0.1,0.3,0.2,0.7,0.6,0.7c0.4,0,0.3-0.4,0.3-0.6
			C182.6,210.6,182.5,210.2,182.1,210.1L182.1,210.1z M179.3,202.3c0,1.4,0.6,2.7,1,4c0.1,0.3,0.3,0.5,0.6,0.4c0,0,0,0,0,0
			c0.3-0.1,0.5-0.4,0.4-0.7c0,0,0-0.1-0.1-0.1C180.7,204.7,180.3,203.3,179.3,202.3z M188.1,209.2c0.2,2.7-0.3,5.4-1.5,7.8
			c-1,2-2.5,3.1-4.7,3.1c-2.3,0-4.5-0.7-5.4-2.9c-2.5-6.2-3.3-12.5,0.1-18.6c1.3-2.4,4.6-3.7,7.1-3c2.1,0.6,3.3,1.8,3.5,4
			C187.4,202.7,188.3,205.9,188.1,209.2z"/>
		<path id="Fill-7" class="st0" d="M53.1,197c-0.9,0.3-0.7,1-0.8,1.6c0,0.4-0.1,1,0.4,0.9c0.9-0.2,0.9-1,1-1.7
			c0.1-0.4-0.1-0.7-0.5-0.8C53.2,197,53.1,197,53.1,197L53.1,197z M64.3,207.3c0.1,1.8-0.2,3.7-0.7,5.4c-1,3.6-3.3,5.3-7.1,5.4
			c-1,0-2.1,0-3.1-0.1c-2.5,0-2.9-0.4-2.8-2.9c0.1-3.1,0.2-6.1,0.4-9.1c0.2-3.4,0.2-6.8,0.3-10.1c0-2.4,0.6-3.1,3.1-2.9
			c3.9,0.2,6.7,2.1,8.4,5.5C64,201.1,64.3,204,64.3,207.3z"/>
		<path id="Fill-9" class="st0" d="M248.2,201.5c0,1.6-0.4,3.1-1.1,4.5c-1.2,2.4-4.1,3.4-6.6,2.4c-2.7-1.1-4.4-3.1-5.6-5.7
			c-0.9-2.1-0.3-4.9,1.5-6.2c2-1.5,4.1-2.7,6.9-1.5C246.4,196.3,248.5,198,248.2,201.5"/>
		<path id="Fill-11" class="st0" d="M236.4,85.9c0.1-1.5,0.4-3,1.1-4.4c1.7-3.4,5.6-4.2,8.4-1.6c1.4,1.3,3.1,2.2,3.3,4.5
			c0.2,2.5,0.7,4.9-0.4,7.4c-2.1,5-8.1,3.8-10.2,0.8C237.5,91.1,236.4,87.9,236.4,85.9"/>
		<path id="Fill-13" class="st0" d="M102.1,87.7c-0.1,2.9-0.2,5.8-1.7,8.4c-1.2,2-2.6,2.4-4.8,1.5c-3.5-1.6-5.3-6.1-4.1-10.3
			c0.3-0.9,0.5-1.7,0.8-2.6c0.7-2.5,2.8-4,5.4-3.7c2.7,0.3,4.3,1.9,4.4,4.7C102.1,86.3,102.1,87,102.1,87.7"/>
		<path id="Fill-15" class="st0" d="M88,151.5c0.3,2.3-0.6,4.6-2.2,6.2c-2.6,2.6-7.2,1.8-8.6-1.5c-1.2-3-1.2-6.1-0.6-9.2
			c0.5-2.6,2.6-4.1,4.9-4.2c2.6,0,5,1.8,5.9,4.3C88,148.5,88,149.9,88,151.5"/>
		<path id="Fill-17" class="st0" d="M86.2,219c-1.2-0.2-2.8-0.4-3.3-1.9c-0.5-1.4,0.3-2.7,1.4-3.5c1.5-1.1,3.1-2.1,4.7-3.1
			c0.8-0.5,1.8-0.2,2.3,0.5c0.2,0.3,0.3,0.6,0.2,1c-0.2,2.3-0.8,4.6-2.7,6.2C88.1,218.9,87.3,219,86.2,219"/>
		<path id="Fill-19" class="st0" d="M144.2,87.4c-1.7,0.1-3.7,0.3-5.8,0.5c-2.6,0.2-3.4-0.9-2.3-3.2c1.6-3.5,3.2-4.4,6.8-4.1
			c2.8,0.3,4.6,2.1,4.6,5C147.7,87,146.9,87.4,144.2,87.4"/>
	</g>
	<path id="_x33_-feb-19" d="M348.1,570.3h1.4v1.4h-1.4V570.3z M348.1,570.3h-4.3v-1.4h4.3V570.3z M345.3,571.7h2.9v1.4h-2.9V571.7z
		 M348.1,573.1h1.4v1.4h-1.4V573.1z M348.1,576h-4.3v-1.4h4.3V576z M358.1,576v-7.1h4.3v1.4h-2.9v1.4h2.9v1.4h-2.9v2.9H358.1z
		 M369.6,570.3h-2.9v1.4h2.9v1.4h-2.9v1.4h2.9v1.4h-4.3v-7.1h4.3V570.3z M378.1,570.3v1.4h-1.4v-1.4H378.1z M378.1,573.1v1.4h-1.4
		v-1.4H378.1z M376.7,570.3h-2.9v1.4h2.9v1.4h-2.9v1.4h2.9v1.4h-4.3v-7.1h4.3V570.3z M388.1,570.3h-1.4v-1.4h2.9v5.7h1.4v1.4h-4.3
		v-1.4h1.4V570.3z M398.1,576h-2.9v-1.4h2.9V576z M395.3,571.7h-1.4v-1.4h1.4V571.7z M398.1,570.3h-2.9v-1.4h2.9V570.3z
		 M398.1,574.6v-1.4h-2.9v-1.4h2.9v-1.4h1.4v4.3H398.1z"/>
	<path id="MELBOURNE_x2C_-BRISBANE_x2C_" d="M54.4,576v-7.1h1.4v7.1H54.4z M60.1,576v-7.1h1.4v7.1H60.1z M58.7,570.3h1.4v1.4h-1.4
		V570.3z M57.3,571.7h1.4v1.4h-1.4V571.7z M55.9,570.3h1.4v1.4h-1.4V570.3z M68.7,570.3h-2.9v1.4h2.9v1.4h-2.9v1.4h2.9v1.4h-4.3
		v-7.1h4.3V570.3z M73,574.6h2.9v1.4h-4.3v-7.1H73V574.6z M84.4,570.3v1.4H83v-1.4H84.4z M84.4,573.1v1.4H83v-1.4H84.4z M83,570.3
		h-2.9v1.4H83v1.4h-2.9v1.4H83v1.4h-4.3v-7.1H83V570.3z M91.6,570.3h-2.9v-1.4h2.9V570.3z M88.7,574.6h-1.4v-4.3h1.4V574.6z
		 M91.6,576h-2.9v-1.4h2.9V576z M93,574.6h-1.4v-4.3H93V574.6z M100.1,568.9h1.4v5.7h-1.4V568.9z M100.1,576h-2.9v-1.4h2.9V576z
		 M95.9,568.9h1.4v5.7h-1.4V568.9z M104.4,576v-7.1h4.3v1.4h-2.9v1.4h2.9v1.4h-2.9v2.9H104.4z M108.7,570.3h1.4v1.4h-1.4V570.3z
		 M107.3,573.1h1.4v1.4h-1.4V573.1z M108.7,574.6h1.4v1.4h-1.4V574.6z M113,576v-7.1h1.4v7.1H113z M118.7,576v-7.1h1.4v7.1H118.7z
		 M117.3,573.1h1.4v1.4h-1.4V573.1z M115.9,571.7h1.4v1.4h-1.4V571.7z M114.4,570.3h1.4v1.4h-1.4V570.3z M127.3,570.3h-2.9v1.4h2.9
		v1.4h-2.9v1.4h2.9v1.4H123v-7.1h4.3V570.3z M130.1,574.6h1.4v1.4h-1.4V574.6z M128.7,576h1.4v1.4h-1.4V576z M145.9,570.3v1.4h-1.4
		v-1.4H145.9z M145.9,573.1v1.4h-1.4v-1.4H145.9z M144.4,570.3h-2.9v1.4h2.9v1.4h-2.9v1.4h2.9v1.4h-4.3v-7.1h4.3V570.3z M148.7,576
		v-7.1h4.3v1.4h-2.9v1.4h2.9v1.4h-2.9v2.9H148.7z M153,570.3h1.4v1.4H153V570.3z M151.6,573.1h1.4v1.4h-1.4V573.1z M153,574.6h1.4
		v1.4H153V574.6z M157.3,576v-7.1h1.4v7.1H157.3z M161.6,576v-1.4h4.3v1.4H161.6z M163,570.3v-1.4h4.3v1.4H163z M163,571.7h2.9v1.4
		H163V571.7z M165.9,573.1h1.4v1.4h-1.4V573.1z M161.6,570.3h1.4v1.4h-1.4V570.3z M175.9,570.3v1.4h-1.4v-1.4H175.9z M175.9,573.1
		v1.4h-1.4v-1.4H175.9z M174.4,570.3h-2.9v1.4h2.9v1.4h-2.9v1.4h2.9v1.4h-4.3v-7.1h4.3V570.3z M178.7,576v-5.7h1.4v1.4h2.9v-1.4h1.4
		v5.7H183v-2.9h-2.9v2.9H178.7z M183,568.9v1.4h-2.9v-1.4H183z M187.3,576v-7.1h1.4v7.1H187.3z M193,576v-7.1h1.4v7.1H193z
		 M191.6,573.1h1.4v1.4h-1.4V573.1z M190.1,571.7h1.4v1.4h-1.4V571.7z M188.7,570.3h1.4v1.4h-1.4V570.3z M201.6,570.3h-2.9v1.4h2.9
		v1.4h-2.9v1.4h2.9v1.4h-4.3v-7.1h4.3V570.3z M204.4,574.6h1.4v1.4h-1.4V574.6z M203,576h1.4v1.4H203V576z M214.4,574.6v-5.7h1.4
		v5.7H214.4z M218.7,574.6h1.4v1.4h-1.4V574.6z M215.9,574.6h1.4v1.4h-1.4V574.6z M220.1,574.6v-5.7h1.4v5.7H220.1z M217.3,574.6
		v-4.3h1.4v4.3H217.3z M228.7,570.3h-2.9v1.4h2.9v1.4h-2.9v1.4h2.9v1.4h-4.3v-7.1h4.3V570.3z M233,574.6h2.9v1.4h-4.3v-7.1h1.4
		V574.6z M240.1,574.6h2.9v1.4h-4.3v-7.1h1.4V574.6z M245.9,576v-7.1h1.4v7.1H245.9z M250.1,576v-7.1h1.4v7.1H250.1z M255.9,576
		v-7.1h1.4v7.1H255.9z M254.4,573.1h1.4v1.4h-1.4V573.1z M253,571.7h1.4v1.4H253V571.7z M251.6,570.3h1.4v1.4h-1.4V570.3z
		 M265.9,570.3h-4.3v-1.4h4.3V570.3z M261.6,574.6h-1.4v-4.3h1.4V574.6z M264.4,576h-2.9v-1.4h2.9V576z M264.4,573.1H263v-1.4h2.9
		v2.9h-1.4V573.1z M270.1,576v-5.7h-1.4v-1.4h4.3v1.4h-1.4v5.7H270.1z M280.1,570.3h-2.9v-1.4h2.9V570.3z M277.3,574.6h-1.4v-4.3
		h1.4V574.6z M280.1,576h-2.9v-1.4h2.9V576z M281.6,574.6h-1.4v-4.3h1.4V574.6z M284.4,576v-7.1h1.4v7.1H284.4z M290.1,576v-7.1h1.4
		v7.1H290.1z M288.7,573.1h1.4v1.4h-1.4V573.1z M287.3,571.7h1.4v1.4h-1.4V571.7z M285.9,570.3h1.4v1.4h-1.4V570.3z"/>
	<path id="PROCESSING-COMMUNITY" d="M54.9,33v-9.5h5.7v1.9h-3.8v1.9h3.8v1.9h-3.8V33H54.9z M60.6,25.4h1.9v1.9h-1.9V25.4z M66.3,33
		v-9.5H72v1.9h-3.8v1.9H72v1.9h-3.8V33H66.3z M72,25.4H74v1.9H72V25.4z M70.1,29.2H72v1.9h-1.9V29.2z M72,31.1H74V33H72V31.1z
		 M83.5,25.4h-3.8v-1.9h3.8V25.4z M79.7,31.1h-1.9v-5.7h1.9V31.1z M83.5,33h-3.8v-1.9h3.8V33z M85.4,31.1h-1.9v-5.7h1.9V31.1z
		 M96.8,27.3h-1.9v-1.9h1.9V27.3z M94.9,25.4h-3.8v-1.9h3.8V25.4z M96.8,31.1h-1.9v-1.9h1.9V31.1z M91.1,31.1h-1.9v-5.7h1.9V31.1z
		 M94.9,33h-3.8v-1.9h3.8V33z M106.3,25.4h-3.8v1.9h3.8v1.9h-3.8v1.9h3.8V33h-5.7v-9.5h5.7V25.4z M110.1,33v-1.9h5.7V33H110.1z
		 M112,25.4v-1.9h5.7v1.9H112z M112,27.3h3.8v1.9H112V27.3z M115.9,29.2h1.9v1.9h-1.9V29.2z M110.1,25.4h1.9v1.9h-1.9V25.4z
		 M121.6,33v-1.9h5.7V33H121.6z M123.5,25.4v-1.9h5.7v1.9H123.5z M123.5,27.3h3.8v1.9h-3.8V27.3z M127.3,29.2h1.9v1.9h-1.9V29.2z
		 M121.6,25.4h1.9v1.9h-1.9V25.4z M133,33v-9.5h1.9V33H133z M138.7,33v-9.5h1.9V33H138.7z M146.3,33v-9.5h1.9V33H146.3z M144.4,29.2
		h1.9v1.9h-1.9V29.2z M142.5,27.3h1.9v1.9h-1.9V27.3z M140.6,25.4h1.9v1.9h-1.9V25.4z M159.7,25.4H154v-1.9h5.7V25.4z M154,31.1H152
		v-5.7h1.9V31.1z M157.8,33H154v-1.9h3.8V33z M157.8,29.2h-1.9v-1.9h3.8v3.8h-1.9V29.2z M178.7,27.3h-1.9v-1.9h1.9V27.3z
		 M176.8,25.4H173v-1.9h3.8V25.4z M178.7,31.1h-1.9v-1.9h1.9V31.1z M173,31.1h-1.9v-5.7h1.9V31.1z M176.8,33H173v-1.9h3.8V33z
		 M188.2,25.4h-3.8v-1.9h3.8V25.4z M184.4,31.1h-1.9v-5.7h1.9V31.1z M188.2,33h-3.8v-1.9h3.8V33z M190.1,31.1h-1.9v-5.7h1.9V31.1z
		 M194,33v-9.5h1.9V33H194z M201.6,33v-9.5h1.9V33H201.6z M199.7,25.4h1.9v1.9h-1.9V25.4z M197.8,27.3h1.9v1.9h-1.9V27.3z
		 M195.9,25.4h1.9v1.9h-1.9V25.4z M207.3,33v-9.5h1.9V33H207.3z M214.9,33v-9.5h1.9V33H214.9z M213,25.4h1.9v1.9H213V25.4z
		 M211.1,27.3h1.9v1.9h-1.9V27.3z M209.2,25.4h1.9v1.9h-1.9V25.4z M226.3,23.5h1.9v7.6h-1.9V23.5z M226.3,33h-3.8v-1.9h3.8V33z
		 M220.6,23.5h1.9v7.6h-1.9V23.5z M232,33v-9.5h1.9V33H232z M239.7,33v-9.5h1.9V33H239.7z M237.8,29.2h1.9v1.9h-1.9V29.2z
		 M235.9,27.3h1.9v1.9h-1.9V27.3z M234,25.4h1.9v1.9H234V25.4z M245.4,33v-9.5h1.9V33H245.4z M253,33v-7.6h-1.9v-1.9h5.7v1.9h-1.9
		V33H253z M266.3,25.4h1.9v1.9h-1.9V25.4z M262.5,25.4h1.9v1.9h-1.9V25.4z M264.4,33v-5.7h1.9V33H264.4z M260.6,23.5h1.9v1.9h-1.9
		V23.5z M268.2,23.5h1.9v1.9h-1.9V23.5z M281.6,33v-9.5h5.7v1.9h-3.8v5.7h3.8V33H281.6z M289.2,25.4v5.7h-1.9v-5.7H289.2z M293,33
		v-7.6h1.9v1.9h3.8v-1.9h1.9V33h-1.9v-3.8H295V33H293z M298.8,23.5v1.9H295v-1.9H298.8z M310.1,25.4h1.9v1.9h-1.9V25.4z M306.3,25.4
		h1.9v1.9h-1.9V25.4z M308.2,33v-5.7h1.9V33H308.2z M304.4,23.5h1.9v1.9h-1.9V23.5z M312,23.5h1.9v1.9H312V23.5z M55,49v-7.6h1.9
		v1.9h3.8v-1.9h1.9V49h-1.9v-3.8h-3.8V49H55z M60.7,39.5v1.9h-3.8v-1.9H60.7z M72,39.5H74v7.6H72V39.5z M72,49h-3.8v-1.9H72V49z
		 M66.3,39.5h1.9v7.6h-1.9V39.5z M77.8,49v-1.9h5.7V49H77.8z M79.7,41.4v-1.9h5.7v1.9H79.7z M79.7,43.3h3.8v1.9h-3.8V43.3z
		 M83.5,45.2h1.9v1.9h-1.9V45.2z M77.8,41.4h1.9v1.9h-1.9V41.4z M91.1,49v-7.6h-1.9v-1.9h5.7v1.9H93V49H91.1z M98.7,49v-9.5h5.7v1.9
		h-3.8v1.9h3.8v1.9h-3.8V49H98.7z M104.4,41.4h1.9v1.9h-1.9V41.4z M102.5,45.2h1.9v1.9h-1.9V45.2z M104.4,47.1h1.9V49h-1.9V47.1z
		 M110.2,49v-7.6h1.9v1.9h3.8v-1.9h1.9V49h-1.9v-3.8h-3.8V49H110.2z M115.9,39.5v1.9h-3.8v-1.9H115.9z M123.5,47.1h3.8V49h-5.7v-9.5
		h1.9V47.1z M131.1,49v-9.5h1.9V49H131.1z M136.9,49v-7.6h1.9v1.9h3.8v-1.9h1.9V49h-1.9v-3.8h-3.8V49H136.9z M142.6,39.5v1.9h-3.8
		v-1.9H142.6z M163.5,41.4h-5.7v-1.9h5.7V41.4z M161.6,45.2h-3.8v-1.9h3.8V45.2z M157.8,43.3h-1.9v-1.9h1.9V43.3z M163.5,49h-5.7
		v-1.9h5.7V49z M157.8,47.1h-1.9v-1.9h1.9V47.1z M161.6,50.9h-1.9V49h1.9V50.9z M161.6,39.5h-1.9v-1.9h1.9V39.5z M174.9,49v-9.5h1.9
		V49H174.9z M182.5,49v-9.5h1.9V49H182.5z M180.6,45.2h1.9v1.9h-1.9V45.2z M178.7,43.3h1.9v1.9h-1.9V43.3z M176.8,41.4h1.9v1.9h-1.9
		V41.4z M194,41.4h-3.8v1.9h3.8v1.9h-3.8v1.9h3.8V49h-5.7v-9.5h5.7V41.4z M197.8,47.1v-7.6h1.9v7.6H197.8z M203.5,47.1h1.9V49h-1.9
		V47.1z M199.7,47.1h1.9V49h-1.9V47.1z M205.4,47.1v-7.6h1.9v7.6H205.4z M201.6,47.1v-5.7h1.9v5.7H201.6z M218.7,49v-3.8h1.9v1.9
		h3.8V49H218.7z M224.4,39.5v3.8h-1.9v-1.9h-3.8v-1.9H224.4z M220.6,43.3h1.9v1.9h-1.9V43.3z M234,41.4h-3.8v1.9h3.8v1.9h-3.8v1.9
		h3.8V49h-5.7v-9.5h5.7V41.4z M237.8,49v-7.6h1.9v1.9h3.8v-1.9h1.9V49h-1.9v-3.8h-3.8V49H237.8z M243.5,39.5v1.9h-3.8v-1.9H243.5z
		 M251.1,47.1h3.8V49h-5.7v-9.5h1.9V47.1z M258.8,49v-7.6h1.9v1.9h3.8v-1.9h1.9V49h-1.9v-3.8h-3.8V49H258.8z M264.5,39.5v1.9h-3.8
		v-1.9H264.5z M270.1,49v-9.5h1.9V49H270.1z M277.8,49v-9.5h1.9V49H277.8z M275.9,45.2h1.9v1.9h-1.9V45.2z M274,43.3h1.9v1.9H274
		V43.3z M272,41.4h1.9v1.9H272V41.4z M283.5,49v-9.5h5.7v1.9h-3.8v5.7h3.8V49H283.5z M291.1,41.4v5.7h-1.9v-5.7H291.1z M302.5,49
		v-3.8h1.9v1.9h5.7V49H302.5z M308.2,41.4h1.9v1.9h-1.9V41.4z M308.2,41.4h-5.7v-1.9h5.7V41.4z M304.4,43.3h3.8v1.9h-3.8V43.3z
		 M319.7,41.4h-3.8v-1.9h3.8V41.4z M315.9,47.1H314v-5.7h1.9V47.1z M319.7,49h-3.8v-1.9h3.8V49z M321.6,47.1h-1.9v-5.7h1.9V47.1z
		 M327.3,41.4h-1.9v-1.9h3.8v7.6h1.9V49h-5.7v-1.9h1.9V41.4z M340.6,49h-3.8v-1.9h3.8V49z M336.8,43.3h-1.9v-1.9h1.9V43.3z
		 M340.6,41.4h-3.8v-1.9h3.8V41.4z M340.6,47.1v-1.9h-3.8v-1.9h3.8v-1.9h1.9v5.7H340.6z"/>
</g>
</svg>
